<svg width="315" height="102" viewBox="0 0 315 102" fill="none" xmlns="http://www.w3.org/2000/svg">
<path d="M77.7485 0.0346061C78.5075 0.112006 79.9545 0.145605 80.4835 0.591205C80.5375 1.1869 80.5645 1.53961 80.7095 2.13341C82.3025 2.37371 88.0895 -1.78099 89.8005 0.911105C91.4765 3.54741 88.0275 8.56931 85.5835 9.85081C83.4135 10.9892 82.9855 11.4501 80.7065 11.2617C80.5065 17.8449 80.9445 25.75 80.5885 32.0044C82.4395 31.083 87.9115 28.507 89.7185 30.2947C91.0085 35.0775 87.4615 39.4062 82.9135 40.5819C82.1595 40.7708 81.3975 40.9199 80.6275 41.029L80.6265 57.4678C80.6285 59.7143 80.7995 63.4167 80.6485 65.4715C81.9275 65.4689 83.0655 65.4587 84.3455 65.5606C84.6625 66.2914 85.0855 66.998 84.8885 67.7388C84.0215 68.6134 82.6745 68.4604 81.3955 68.4674L12.5705 68.4064C9.2737 68.3914 5.9137 68.4084 2.6156 68.3564C1.9546 68.3464 0.751601 68.0724 0.260101 67.605C0.0377013 67.3934 0.0767 67.3069 0 66.9793C0.9328 65.1546 3.6339 65.4368 5.3247 65.5285C5.23 63.4232 5.2961 60.3382 5.3941 58.193C4.0402 58.1715 1.6411 58.3281 0.593801 57.5359C0.230401 56.7131 0.2196 56.9833 0.3304 56.1603C1.5915 54.4849 9.3788 54.943 11.6023 55.1487C11.6203 52.6302 11.6584 50.1119 11.717 47.594C10.3362 48.3311 4.6104 52.5879 3.8709 50.2647C3.0397 47.653 7.6871 47.3247 8.5457 45.9464L8.8648 45.7467C9.5113 45.4898 10.9389 44.587 11.5988 44.1938C11.8607 40.7229 11.6704 34.9055 11.5084 31.4058C10.2458 32.7931 4.503 37.1761 2.8998 35.1915C2.4073 32.5765 6.9999 31.251 8.8802 30.1458L26.2022 20.0472L39.8446 12.0235C42.5223 10.4483 45.9663 8.30741 48.7424 7.09701C49.7063 6.51531 50.3413 6.12971 51.2419 5.42721C51.8159 6.32041 52.2027 6.8611 52.8726 7.6845C52.2569 8.0897 51.3858 8.70371 50.7664 9.04951C49.0713 10.5725 49.9933 18.535 49.7713 21.1853C51.422 20.1534 52.189 19.5847 54.0669 19.0367C61.198 23.053 68.7001 27.0018 75.4915 31.6703C75.7971 31.8806 76.0545 32.3818 76.1659 32.7361C76.0261 33.4814 76.1765 33.2115 75.5636 33.7355C73.5264 34.3091 71.5824 32.7671 70.2445 31.4127C70.4624 34.3399 70.3783 37.9769 70.3796 40.9598L70.3891 56.5447C70.395 58.7734 70.3052 63.3376 70.5502 65.3883C70.9138 65.5331 70.8247 65.5608 71.144 65.5196C72.9781 65.2831 75.6846 65.364 77.4975 65.5669C77.7245 52.8247 77.4135 39.9883 77.6105 27.1956C74.4161 26.7273 72.0593 25.7712 70.0713 23.0637C67.7425 19.8915 65.9836 14.5373 72.3498 15.9055C74.652 16.4002 75.7731 16.7978 77.3945 18.6339C77.7585 13.3453 77.0325 4.80291 77.7485 0.0346061ZM9.2392 65.3221C9.9069 65.3894 10.8331 65.5951 11.3629 65.3495C11.5333 64.3134 11.7657 58.8159 11.247 58.1583L11.0278 58.1759C10.435 58.18 9.3231 58.1058 8.8689 58.3851C8.5767 59.468 8.4119 64.541 8.8633 65.3529L9.2392 65.3221ZM84.1215 35.0083C84.9225 34.5751 86.3885 34.0115 86.3905 33.0437C85.3575 32.7629 84.4175 33.6527 83.6275 34.2456C82.5905 34.9456 81.2195 35.7055 81.1475 37.0683L81.3925 37.3532C82.4955 37.24 83.1475 35.8807 84.1215 35.0083ZM81.4535 7.73611C83.2445 6.20731 84.4125 5.09921 86.3265 3.54501L86.3235 3.28181L86.2425 3.2036C84.7475 3.8045 81.3935 5.90981 81.2815 7.56531L81.4535 7.73611Z" fill="#394255"/>
<path d="M51.2419 5.42721C51.8159 6.32041 52.2027 6.8611 52.8726 7.6845C52.2569 8.0897 51.3858 8.70371 50.7664 9.04951C50.4271 8.53851 50.3467 8.16191 50.165 7.58241C49.7377 7.15401 49.3584 7.18091 48.7424 7.09701C49.7063 6.51531 50.3413 6.12971 51.2419 5.42721Z" fill="#272931"/>
<path d="M53.6677 22.4053C55.714 23.3789 65.4519 29.0833 67.3428 30.4053C67.418 36.8374 67.5078 45.0334 67.0913 51.3715C66.4758 52.0043 66.0166 52.4028 65.6351 53.1965L65.0974 53.4135C64.3733 53.1961 64.5871 53.2594 64.065 52.5244C62.8527 51.5159 61.7598 51.8671 60.082 51.9989L58.8753 51.9495C57.7187 51.7325 55.8402 51.863 54.6634 51.9568C54.1934 52.005 53.4821 51.9907 52.9897 51.9972C51.7945 51.7348 50.3123 51.9137 49.0679 51.9931C48.6928 51.1488 48.5259 50.9054 48.7704 50.0341C48.7052 49.4249 48.7336 49.0203 48.0995 48.6138C45.9317 47.2242 42.5987 45.1399 40.2906 44.1845C40.3151 39.8904 40.2152 34.7152 40.4086 30.4736C43.556 28.3377 50.2019 24.3896 53.6677 22.4053Z" fill="#F1AD2E"/>
<path d="M50.254 36.2292C51.1981 36.2245 53.8095 36.1605 54.5986 36.2997C55.4211 36.3151 56.4728 36.2429 57.1568 36.6372C57.8571 37.618 57.577 38.2825 57.3714 39.5579C57.4293 39.8931 57.5739 40.5814 57.5475 40.8886C57.6522 42.2902 57.5507 42.7422 57.3025 44.095L54.6157 44.1269C54.2032 44.2234 53.5088 44.2063 53.0626 44.2128L50.0309 44.0352C49.9787 42.9252 49.9062 41.6958 50.3622 40.6872L50.2906 39.8048C50.0645 38.5333 49.8447 37.4671 50.254 36.2292Z" fill="#BC9D63"/>
<path d="M50.3622 40.6872C51.1726 40.6846 52.0272 40.5989 52.7209 40.9878C53.2321 41.609 53.3451 41.7744 53.2573 42.6886C53.2039 43.1981 53.1391 43.7063 53.0626 44.2128L50.0309 44.0352C49.9787 42.9252 49.9062 41.6958 50.3622 40.6872Z" fill="#634624"/>
<path d="M50.254 36.2292L53.1029 36.3322C53.1365 37.6107 53.163 38.5113 53.0457 39.7964L50.2906 39.8048C50.0645 38.5333 49.8447 37.4671 50.254 36.2292Z" fill="#4F3723"/>
<path d="M54.5986 36.2997C55.4211 36.3151 56.4728 36.2429 57.1568 36.6372C57.8571 37.618 57.577 38.2825 57.3714 39.5579C56.5738 39.5345 55.4667 39.694 54.6498 39.7852C54.5997 38.633 54.6062 37.4548 54.5986 36.2997Z" fill="#4F3723"/>
<path d="M54.5551 40.9197C55.5366 40.8926 56.5615 40.8981 57.5475 40.8886C57.6522 42.2902 57.5507 42.7422 57.3025 44.095L54.6157 44.1269C54.5336 43.3496 54.5642 41.7578 54.5551 40.9197Z" fill="#4F3723"/>
<path d="M44.2675 13.3499C45.1122 12.5129 45.7155 12.3002 46.7795 11.8135C46.7919 14.7552 46.8134 17.7056 46.866 20.6469C46.9062 22.8909 46.6139 23.2475 44.6007 24.0898C42.1724 25.4849 32.0098 30.587 31.4032 32.7996C31.3443 33.0151 31.4715 33.3184 31.524 33.5369C32.9418 34.9854 34.0748 33.8938 35.5514 33.321C36.148 32.6166 36.4797 32.2047 37.1863 31.615C37.2082 34.9082 37.1249 38.9606 37.304 42.1921L34.5045 40.7036C33.3475 40.187 30.6993 38.6067 29.4393 37.9345C28.8318 37.4237 26.6864 36.0752 25.9226 35.5692C22.0699 38.2399 19.1308 40.1759 14.7519 42.0213C14.6088 38.1127 14.6743 34.2639 14.7188 30.3563C17.6319 28.9066 21.2534 26.3699 24.2574 24.7513C31.0065 21.1145 37.5819 17.0513 44.2675 13.3499Z" fill="#94C21F"/>
<path d="M44.2675 13.3499C45.1122 12.5129 45.7155 12.3002 46.7795 11.8135C46.7919 14.7552 46.8134 17.7056 46.866 20.6469C46.9062 22.8909 46.6139 23.2475 44.6007 24.0898C44.1302 21.173 44.7243 16.5281 44.2675 13.3499Z" fill="#B8D2B3"/>
<path d="M35.5514 33.321C36.148 32.6166 36.4797 32.2047 37.1863 31.615C37.2082 34.9082 37.1249 38.9606 37.304 42.1921L34.5045 40.7036C35.8776 39.5992 35.9396 34.8884 35.5514 33.321Z" fill="#B8D2B3"/>
<path d="M40.1367 47.7236C42.5646 48.6131 43.0734 49.1924 45.1976 50.5801C46.9716 51.0822 47.0845 50.9191 48.7704 50.0341C48.5259 50.9054 48.6928 51.1488 49.0679 51.9931C50.3123 51.9137 51.7945 51.7348 52.9897 51.9972C53.4821 51.9907 54.1934 52.005 54.6634 51.9568C55.8402 51.863 57.7187 51.7325 58.8753 51.9495L60.082 51.9989C61.7598 51.8671 62.8527 51.5159 64.065 52.5244C64.5871 53.2594 64.3733 53.1961 65.0974 53.4135L65.6351 53.1965C66.176 54.483 66.9778 53.9904 67.1654 54.9952L67.0156 55.3221C66.7391 56.0334 66.673 56.1542 66.7823 56.9245L67.1697 57.3511C67.6256 59.1373 65.6675 58.077 65.862 60.29C66.698 61.2069 67.1912 60.8728 67.3937 61.6214L67.1398 61.8852C66.8538 62.8387 66.6947 63.3206 66.9846 64.3112C67.2399 64.6888 67.2332 64.712 67.2783 65.1766L66.9872 65.4663C65.1693 65.7466 41.6055 65.8175 40.4189 65.298C40.2071 64.6552 40.2598 64.8629 40.5811 64.0983C40.585 63.6311 40.4278 62.45 40.3727 61.9303C40.2943 61.1466 40.8714 61.038 41.4301 60.7854C42.9205 59.6943 40.2058 59.1206 40.1093 57.3754L40.5785 56.9468C40.5757 56.177 40.582 56.0575 40.2685 55.333C40.069 54.9544 40.1794 54.6691 40.2537 54.2347C40.1206 53.0527 40.0946 52.7442 40.2787 51.5752C40.2932 50.3005 40.2034 48.9988 40.1367 47.7236Z" fill="#BC9D63"/>
<path d="M40.3727 61.9303C40.2943 61.1466 40.8714 61.038 41.4301 60.7854C42.1816 60.8115 42.942 60.8586 43.6899 60.7956L43.9956 60.9111L44.2111 61.6608C44.754 61.726 45.4113 61.834 45.9461 61.8039L46.1857 61.9587C46.1367 63.0108 45.9962 62.8657 46.4151 63.705C47.4338 64.5043 48.9191 64.281 50.2446 64.2548C50.5513 64.3536 50.7222 64.3697 51.0359 64.4217L51.5662 64.036C51.5217 63.4175 51.4222 62.848 51.6891 62.2878C52.5836 61.6231 53.7907 61.8466 54.9905 61.878L55.3478 61.9043C56.1293 61.8156 56.7281 61.6996 57.4995 61.8648L61.5208 61.9155C62.158 61.8201 62.4606 61.736 63.0995 61.9014C64.6306 61.8223 65.6122 61.7961 67.1398 61.8852C66.8538 62.8387 66.6947 63.3206 66.9846 64.3112C67.2399 64.6888 67.2332 64.712 67.2783 65.1766L66.9872 65.4663C65.1693 65.7466 41.6055 65.8175 40.4189 65.298C40.2071 64.6552 40.2598 64.8629 40.5811 64.0983C40.585 63.6311 40.4278 62.45 40.3727 61.9303Z" fill="#AD9261"/>
<path d="M40.3727 61.9303C40.2943 61.1466 40.8714 61.038 41.4301 60.7854C42.1816 60.8115 42.942 60.8586 43.6899 60.7956L43.9956 60.9111L44.2111 61.6608C44.754 61.726 45.4113 61.834 45.9461 61.8039C45.924 62.5152 45.9669 63.6354 45.6408 64.2153L45.2803 64.3127C45.163 64.2392 44.765 64.0015 44.6874 63.9265C43.8709 64.2574 41.578 64.1265 40.5811 64.0983C40.585 63.6311 40.4278 62.45 40.3727 61.9303Z" fill="#634624"/>
<path d="M40.3727 61.9303C40.2943 61.1466 40.8714 61.038 41.4301 60.7854C42.1816 60.8115 42.942 60.8586 43.6899 60.7956L43.9956 60.9111L44.2111 61.6608C44.754 61.726 45.4113 61.834 45.9461 61.8039C45.924 62.5152 45.9669 63.6354 45.6408 64.2153L45.2803 64.3127C45.163 64.2392 44.765 64.0015 44.6874 63.9265C44.6895 63.2508 44.7583 62.7936 44.4419 62.2058C43.6168 61.7241 42.496 61.8561 41.4118 61.8039L40.3727 61.9303Z" fill="#B08D68"/>
<path d="M40.3727 61.9303C40.2943 61.1466 40.8714 61.038 41.4301 60.7854C42.1816 60.8115 42.942 60.8586 43.6899 60.7956L43.9956 60.9111L44.2111 61.6608C43.4679 61.6526 42.0385 61.5569 41.4118 61.8039L40.3727 61.9303Z" fill="#BC9D63"/>
<path d="M54.9905 61.878L55.3478 61.9043C56.9454 63.1472 55.8585 64.4197 54.1779 64.2384C53.3419 64.1483 52.4169 64.1119 51.5662 64.036C51.5217 63.4175 51.4222 62.848 51.6891 62.2878C52.5836 61.6231 53.7907 61.8466 54.9905 61.878Z" fill="#90613B"/>
<path d="M63.0995 61.9014C64.6306 61.8223 65.6122 61.7961 67.1398 61.8852C66.8538 62.8387 66.6947 63.3206 66.9846 64.3112C65.6781 64.0532 64.3831 64.5885 63.4121 63.898C62.9408 63.2708 63.0613 62.6962 63.0995 61.9014Z" fill="#634624"/>
<path d="M57.4995 61.8648L61.5208 61.9155C61.4857 64.1415 60.1781 65.1655 58.0034 63.9046C57.4609 63.5901 57.5422 62.4881 57.4995 61.8648Z" fill="#6D5627"/>
<path d="M64.7732 57.4451C65.6876 57.3328 66.259 57.2224 67.1697 57.3511C67.6256 59.1373 65.6675 58.077 65.862 60.29C66.698 61.2069 67.1912 60.8728 67.3937 61.6214L67.1398 61.8852C65.6122 61.7961 64.6306 61.8223 63.0995 61.9014C62.4606 61.736 62.158 61.8201 61.5208 61.9155L57.4995 61.8648C56.7281 61.6996 56.1293 61.8156 55.3478 61.9043L54.9905 61.878C53.7907 61.8466 52.5836 61.6231 51.6891 62.2878C51.4222 62.848 51.5217 63.4175 51.5662 64.036L51.0359 64.4217C50.7222 64.3697 50.5513 64.3536 50.2446 64.2548C48.9191 64.281 47.4338 64.5043 46.4151 63.705C45.9962 62.8657 46.1367 63.0108 46.1857 61.9587L45.9461 61.8039C45.4113 61.834 44.754 61.726 44.2111 61.6608L43.9956 60.9111L47.9246 60.8768L48.9739 60.8243L48.8707 58.923C49.4528 58.654 49.7162 58.6789 50.3479 58.6379L52.7156 58.6015C53.367 58.2269 54.051 58.5603 54.8807 58.6056C56.7382 58.6151 59.167 58.174 59.0283 60.8412L59.9158 60.8651C59.7281 58.2516 61.423 58.5783 63.3371 58.5334C63.0197 58.4816 62.7032 58.4265 62.3871 58.3682L62.3949 58.082C63.1873 57.834 63.9504 57.7159 64.6615 57.4826L64.7732 57.4451Z" fill="#C49F67"/>
<path d="M52.7156 58.6015C53.367 58.2269 54.051 58.5603 54.8807 58.6056C56.7382 58.6151 59.167 58.174 59.0283 60.8412C57.5434 60.8934 56.0573 60.8962 54.5722 60.8489L53.08 60.8871C53.1153 60.0336 52.9196 59.4273 52.7156 58.6015Z" fill="#90613B"/>
<path d="M52.7156 58.6015C53.367 58.2269 54.051 58.5603 54.8807 58.6056C54.1529 59.5511 54.1594 59.6913 54.5722 60.8489L53.08 60.8871C53.1153 60.0336 52.9196 59.4273 52.7156 58.6015Z" fill="#AD9261"/>
<path d="M48.4413 61.7329C49.4524 61.8669 49.5066 61.7145 50.2006 62.2582C50.3614 62.9899 50.2914 63.511 50.2446 64.2548C48.9191 64.281 47.4338 64.5043 46.4151 63.705C45.9962 62.8657 46.1367 63.0108 46.1857 61.9587L48.4413 61.7329Z" fill="#90613B"/>
<path d="M50.3479 58.6379L52.7156 58.6015C52.9196 59.4273 53.1153 60.0336 53.08 60.8871C51.9637 60.9671 50.1515 60.8627 48.9739 60.8243L48.8707 58.923C49.4528 58.654 49.7162 58.6789 50.3479 58.6379Z" fill="#6D5627"/>
<path d="M59.9158 60.8651C59.7281 58.2516 61.423 58.5783 63.3371 58.5334C63.6411 59.1378 63.9845 59.6568 63.8874 60.3259C63.0807 61.2893 61.1591 60.9115 59.9158 60.8651Z" fill="#6D5627"/>
<path d="M48.4413 61.7329C49.8901 61.6666 53.8762 61.4002 54.9905 61.878C53.7907 61.8466 52.5836 61.6231 51.6891 62.2878C51.4222 62.848 51.5217 63.4175 51.5662 64.036L51.0359 64.4217C50.7222 64.3697 50.5513 64.3536 50.2446 64.2548C50.2914 63.511 50.3614 62.9899 50.2006 62.2582C49.5066 61.7145 49.4524 61.8669 48.4413 61.7329Z" fill="#BC9D63"/>
<path d="M50.407 55.3579L50.7387 55.0776C51.1508 55.1537 51.2566 55.1375 51.5393 55.4507C51.5432 56.1993 51.4842 56.8085 51.8053 57.483C51.7485 58.6114 51.4236 58.463 50.3479 58.6379C49.7162 58.6789 49.4528 58.654 48.8707 58.923L48.9739 60.8243L47.9246 60.8768L43.9956 60.9111L43.6899 60.7956C42.942 60.8586 42.1816 60.8115 41.4301 60.7854C42.9205 59.6943 40.2058 59.1206 40.1093 57.3754L40.5785 56.9468C41.8996 57.1877 43.0196 57.215 44.3542 57.2783L44.6614 56.884C45.1804 56.4374 45.3773 56.6498 45.9091 56.89L46.0324 56.0599C46.9985 55.0165 48.7441 55.4499 50.407 55.3579Z" fill="#AD9261"/>
<path d="M40.5785 56.9468C41.8996 57.1877 43.0196 57.215 44.3542 57.2783L44.295 58.2783L44.5626 58.5292C43.6269 58.9383 43.2827 59.8629 43.6899 60.7956C42.942 60.8586 42.1816 60.8115 41.4301 60.7854C42.9205 59.6943 40.2058 59.1206 40.1093 57.3754L40.5785 56.9468Z" fill="#B08D68"/>
<path d="M43.6899 60.7956C43.2827 59.8629 43.6269 58.9383 44.5626 58.5292C45.6084 58.5988 46.4628 58.6448 47.5193 58.6401C47.6257 59.1931 47.8845 60.3685 47.9246 60.8768L43.9956 60.9111L43.6899 60.7956Z" fill="#90613B"/>
<path d="M45.9091 56.89L46.0324 56.0599C46.9985 55.0165 48.7441 55.4499 50.407 55.3579C50.3084 56.5156 50.5011 56.4102 49.8735 57.1493C48.7416 57.6219 47.0196 57.2835 45.9091 56.89Z" fill="#634624"/>
<path d="M40.1367 47.7236C42.5646 48.6131 43.0734 49.1924 45.1976 50.5801C44.7902 51.242 44.6118 51.6834 43.889 51.9462L43.7323 51.9731C42.771 51.918 42.1334 51.9538 41.1684 52.0145L40.2787 51.5752C40.2932 50.3005 40.2034 48.9988 40.1367 47.7236Z" fill="#CDA556"/>
<path d="M49.0679 51.9931C50.3123 51.9137 51.7945 51.7348 52.9897 51.9972C53.4821 51.9907 54.1934 52.005 54.6634 51.9568C54.5427 52.6493 54.3615 53.2451 54.5538 53.9016L53.2816 53.9666C51.6829 54.2236 50.556 54.0761 48.9604 53.9343C48.9782 53.3065 49.0315 52.6251 49.0679 51.9931Z" fill="#714025"/>
<path d="M52.9897 51.9972C53.4821 51.9907 54.1934 52.005 54.6634 51.9568C54.5427 52.6493 54.3615 53.2451 54.5538 53.9016L53.2816 53.9666C53.241 53.4259 53.0782 52.5603 52.9897 51.9972Z" fill="#B08D68"/>
<path d="M54.6634 51.9568C55.8402 51.863 57.7187 51.7325 58.8753 51.9495L59.0212 53.8341C58.2123 54.2638 55.4134 54.1049 54.5538 53.9016C54.3615 53.2451 54.5427 52.6493 54.6634 51.9568Z" fill="#714025"/>
<path d="M48.7704 50.0341C48.5259 50.9054 48.6928 51.1488 49.0679 51.9931C49.0315 52.6251 48.9782 53.3065 48.9604 53.9343C48.5929 54.0979 48.6545 54.0334 48.1841 53.9692C47.8259 53.3442 47.9502 53.2575 47.935 52.4361C47.1994 51.9301 44.9956 52.0069 43.889 51.9462C44.6118 51.6834 44.7902 51.242 45.1976 50.5801C46.9716 51.0822 47.0845 50.9191 48.7704 50.0341Z" fill="#AD9261"/>
<path d="M60.082 51.9989C61.7598 51.8671 62.8527 51.5159 64.065 52.5244C63.8775 53.5338 64.0292 53.6637 63.1943 54.2868C61.8899 54.0039 60.7322 54.4058 59.7993 53.5872L60.082 51.9989Z" fill="#634624"/>
<path d="M51.5393 55.4507C52.6768 55.4641 55.0969 55.2616 55.8676 55.6507C56.2013 56.3906 56.1785 56.0795 55.9906 56.8227C54.579 57.7307 53.0287 56.6495 51.8053 57.483C51.4842 56.8085 51.5432 56.1993 51.5393 55.4507Z" fill="#634624"/>
<path d="M43.889 51.9462C44.9956 52.0069 47.1994 51.9301 47.935 52.4361C47.6178 54.5505 44.8914 54.6044 43.7855 53.4485C43.5742 52.8061 43.6332 52.6178 43.7323 51.9731L43.889 51.9462Z" fill="#4F3723"/>
<path d="M65.9804 55.3643L67.0156 55.3221C66.7391 56.0334 66.673 56.1542 66.7823 56.9245L67.1697 57.3511C66.259 57.2224 65.6876 57.3328 64.7732 57.4451C63.8454 57.3504 63.0317 57.2548 62.9931 56.2209C63.882 55.1139 64.6828 55.3392 65.9804 55.3643Z" fill="#634624"/>
<path d="M40.2685 55.333L40.4821 55.3887C42.2106 55.8245 43.561 55.0594 44.5026 55.7872C44.6506 56.3055 44.6659 56.3498 44.6614 56.884L44.3542 57.2783C43.0196 57.215 41.8996 57.1877 40.5785 56.9468C40.5757 56.177 40.582 56.0575 40.2685 55.333Z" fill="#4F3723"/>
<path d="M64.065 52.5244C64.5871 53.2594 64.3733 53.1961 65.0974 53.4135L65.6351 53.1965C66.176 54.483 66.9778 53.9904 67.1654 54.9952L67.0156 55.3221L65.9804 55.3643C64.4635 55.0613 64.0539 55.789 63.1943 54.2868C64.0292 53.6637 63.8775 53.5338 64.065 52.5244Z" fill="#CDA556"/>
<path d="M40.2787 51.5752L41.1684 52.0145C41.8207 52.6705 41.7877 52.4588 42.0064 53.2695C41.5347 53.9062 41.091 54.024 40.2537 54.2347C40.1206 53.0527 40.0946 52.7442 40.2787 51.5752Z" fill="#564C4C"/>
<path d="M57.5628 55.4146C58.6951 55.3794 60.2344 55.1819 61.1681 55.6966C61.6522 56.3559 61.5146 56.1358 61.4957 57.0913C60.4614 57.1927 58.8176 57.4449 57.9314 57C57.4195 56.3056 57.5806 56.4402 57.5628 55.4146Z" fill="#4F3723"/>
<path d="M25.2835 40.2235C27.0003 39.7247 28.2508 40.7317 29.9143 41.5945C32.3966 42.9315 34.9923 44.636 37.3092 45.847C37.1618 50.9476 37.3528 56.0558 37.201 61.1925C37.2091 62.2993 37.0933 63.9862 37.2275 64.9975L37.1837 65.1194C36.4826 65.5707 28.8392 65.445 27.5421 65.4485C27.716 63.5385 27.5729 60.2896 27.5432 58.2814C28.9996 58.3005 32.3645 58.6159 33.6304 57.7671C34.1874 57.3938 34.1052 55.9636 33.5818 55.3906C32.1861 54.8746 17.2703 55.1038 14.6585 55.1155C14.5846 52.1166 14.5924 49.1163 14.6819 46.118C16.9466 44.5451 21.5364 42.2232 23.1895 40.9487C23.7258 40.819 24.7246 40.426 25.2835 40.2235Z" fill="#6CB5C0"/>
<path d="M25.2835 40.2235C27.0003 39.7247 28.2508 40.7317 29.9143 41.5945C32.3966 42.9315 34.9923 44.636 37.3092 45.847C37.1618 50.9476 37.3528 56.0558 37.201 61.1925C37.2091 62.2993 37.0933 63.9862 37.2275 64.9975C36.7932 64.0306 36.2908 63.3902 35.6784 62.5384C36.0584 60.2349 36.1499 56.9158 36.1649 54.552C35.7497 52.4543 37.1346 46.903 36.6119 46.3851C34.0725 43.8687 28.6863 41.2637 25.2835 40.2235Z" fill="#56ABB0"/>
<path d="M23.1049 48.6594C23.1997 46.7322 24.0372 46.4951 25.7535 46.858C26.0722 47.042 26.3768 47.1667 26.5854 47.4477C27.2514 47.0399 27.5939 46.7505 28.3714 46.7687C29.2268 47.2855 29.105 47.6504 28.9918 48.5978C28.9346 49.1766 28.8735 49.4689 28.983 50.049C28.9435 50.973 29.0859 50.9878 28.648 51.6544C28.057 51.8649 27.5653 51.7292 26.9507 51.6282C25.793 51.623 25.1099 51.6676 23.9587 51.8003L23.6122 51.6746C23.0935 51.022 23.2493 51.0294 23.1496 50.0534C23.4323 49.4019 23.3107 49.1812 23.1049 48.6594Z" fill="#78A9BC"/>
<path d="M23.7196 50.0068C24.806 50.0391 25.9485 50.2121 26.8788 50.2351L26.9507 51.6282C25.793 51.623 25.1099 51.6676 23.9587 51.8003L23.6122 51.6746C23.0935 51.022 23.2493 51.0294 23.1496 50.0534L23.7196 50.0068Z" fill="#27455B"/>
<path d="M23.7196 50.0068C24.806 50.0391 25.9485 50.2121 26.8788 50.2351L26.9507 51.6282C25.793 51.623 25.1099 51.6676 23.9587 51.8003C24.7715 51.5997 25.152 51.6215 25.3131 50.7528C24.6963 50.0701 24.7767 50.2622 23.7196 50.0068Z" fill="#3A6E7F"/>
<path d="M23.1049 48.6594C23.1997 46.7322 24.0372 46.4951 25.7535 46.858C25.4316 47.9385 25.6536 47.7054 24.8994 48.4246C24.0855 48.6628 23.9539 48.6754 23.1049 48.6594Z" fill="#27455B"/>
<path d="M26.5854 47.4477C27.2514 47.0399 27.5939 46.7505 28.3714 46.7687C29.2268 47.2855 29.105 47.6504 28.9918 48.5978C28.2393 48.6327 27.9924 48.5778 27.2594 48.4514C26.5722 47.9306 26.7348 48.205 26.5854 47.4477Z" fill="#27455B"/>
<path d="M26.8788 50.2351C27.85 49.9402 27.9771 49.9241 28.983 50.049C28.9435 50.973 29.0859 50.9878 28.648 51.6544C28.057 51.8649 27.5653 51.7292 26.9507 51.6282L26.8788 50.2351Z" fill="#155B69"/>
<path d="M20.9786 58.258L24.4357 58.2309C24.507 60.5843 24.4539 63.2194 24.4508 65.5953C23.2893 65.5186 22.0806 65.493 20.914 65.4518C20.9867 63.126 20.9609 60.5999 20.9786 58.258Z" fill="#78A9BC"/>
<path d="M14.6679 58.0879L17.8917 58.2362C17.9483 60.6931 18.0107 63.0144 17.9222 65.4744L14.7243 65.5227C14.677 63.0447 14.6584 60.5663 14.6679 58.0879Z" fill="#78A9BC"/>
<path d="M29.4393 37.9345C30.6993 38.6067 33.3475 40.187 34.5045 40.7036L37.304 42.1921C36.0116 42.8278 33.2993 39.7752 31.1929 39.7468C31.0192 40.0165 30.871 40.2287 30.6823 40.4886C29.2328 40.5884 28.2789 38.7324 26.8979 39.4445L27.0321 39.6754C27.9559 39.7069 29.4688 40.8387 29.9143 41.5945C28.2508 40.7317 27.0003 39.7247 25.2835 40.2235C24.7246 40.426 23.7258 40.819 23.1895 40.9487C23.5446 40.4163 26.6586 38.5932 27.4126 38.3779C28.0253 38.203 28.7122 38.2167 29.4393 37.9345Z" fill="#27455B"/>
<path d="M70.8344 18.7378C72.9044 18.9012 77.8095 21.4536 76.9141 24.2169C76.0449 23.6961 76.0824 22.7526 75.3672 22.2028C74.2718 21.3604 72.7941 20.7416 71.6244 19.9967C70.9708 19.5803 70.9812 19.371 70.8344 18.7378Z" fill="#C3D3E5"/>
<path d="M83.6275 34.2456C83.7605 34.8414 83.6285 34.6376 84.1215 35.0083C83.1475 35.8807 82.4955 37.24 81.3925 37.3532L81.1475 37.0683C81.2205 35.7055 82.5915 34.9456 83.6275 34.2456Z" fill="#C3D3E5" fill-opacity="0.709804"/>
<path d="M86.2425 3.2036L86.3235 3.28181L86.3265 3.54501C84.4125 5.09921 83.2445 6.20731 81.4535 7.73611L81.2815 7.56531C81.3935 5.90981 84.7475 3.8045 86.2425 3.2036Z" fill="#C3D3E5" fill-opacity="0.0313725"/>
<path d="M83.6275 34.2456C84.4175 33.6527 85.3575 32.7629 86.3905 33.0437C86.3885 34.0115 84.9225 34.575 84.1225 35.0082C83.6295 34.6375 83.7595 34.8414 83.6275 34.2456Z" fill="#C3D3E5" fill-opacity="0.556863"/>
<path d="M110.14 67.8C107.34 67.8 104.86 67.2 102.7 66C100.58 64.8 98.94 63.12 97.78 60.96C96.62 58.8 96.04 56.28 96.04 53.4C96.04 50.48 96.62 47.94 97.78 45.78C98.98 43.62 100.66 41.96 102.82 40.8C104.98 39.6 107.52 39 110.44 39C113.36 39 115.84 39.56 117.88 40.68C119.92 41.8 121.48 43.42 122.56 45.54C123.68 47.62 124.24 50.14 124.24 53.1C124.24 53.42 124.22 53.76 124.18 54.12C124.18 54.48 124.16 54.74 124.12 54.9H99.88V50.46H118.6L116.62 53.22C116.74 52.98 116.86 52.66 116.98 52.26C117.14 51.82 117.22 51.46 117.22 51.18C117.22 49.7 116.92 48.42 116.32 47.34C115.76 46.26 114.96 45.42 113.92 44.82C112.92 44.22 111.74 43.92 110.38 43.92C108.74 43.92 107.34 44.28 106.18 45C105.02 45.72 104.14 46.76 103.54 48.12C102.94 49.48 102.62 51.16 102.58 53.16C102.58 55.16 102.88 56.86 103.48 58.26C104.08 59.62 104.96 60.66 106.12 61.38C107.32 62.1 108.76 62.46 110.44 62.46C112.2 62.46 113.74 62.1 115.06 61.38C116.38 60.66 117.48 59.56 118.36 58.08L123.94 60.36C122.5 62.84 120.64 64.7 118.36 65.94C116.08 67.18 113.34 67.8 110.14 67.8Z" fill="#94C21F"/>
<path d="M134.745 53.4C134.745 55.16 135.125 56.7 135.885 58.02C136.645 59.3 137.665 60.32 138.945 61.08C140.265 61.84 141.725 62.22 143.325 62.22C144.645 62.22 145.905 62.02 147.105 61.62C148.305 61.22 149.365 60.66 150.285 59.94C151.205 59.22 151.885 58.42 152.325 57.54V64.68C151.365 65.64 150.065 66.4 148.425 66.96C146.785 67.52 144.985 67.8 143.025 67.8C140.185 67.8 137.625 67.2 135.345 66C133.105 64.76 131.325 63.06 130.005 60.9C128.725 58.7 128.085 56.2 128.085 53.4C128.085 50.56 128.725 48.06 130.005 45.9C131.325 43.74 133.105 42.06 135.345 40.86C137.625 39.62 140.185 39 143.025 39C144.985 39 146.785 39.28 148.425 39.84C150.065 40.4 151.365 41.16 152.325 42.12V49.26C151.885 48.34 151.185 47.54 150.225 46.86C149.305 46.14 148.245 45.58 147.045 45.18C145.845 44.78 144.605 44.58 143.325 44.58C141.725 44.58 140.265 44.96 138.945 45.72C137.665 46.48 136.645 47.52 135.885 48.84C135.125 50.16 134.745 51.68 134.745 53.4Z" fill="#94C21F"/>
<path d="M157.388 53.4C157.388 50.56 158.028 48.06 159.308 45.9C160.628 43.74 162.408 42.06 164.648 40.86C166.888 39.62 169.428 39 172.268 39C175.108 39 177.628 39.62 179.828 40.86C182.068 42.06 183.848 43.74 185.168 45.9C186.488 48.06 187.148 50.56 187.148 53.4C187.148 56.2 186.488 58.7 185.168 60.9C183.848 63.06 182.068 64.76 179.828 66C177.628 67.2 175.108 67.8 172.268 67.8C169.428 67.8 166.888 67.2 164.648 66C162.408 64.76 160.628 63.06 159.308 60.9C158.028 58.7 157.388 56.2 157.388 53.4ZM164.048 53.4C164.048 55.12 164.408 56.64 165.128 57.96C165.848 59.24 166.828 60.26 168.068 61.02C169.308 61.74 170.708 62.1 172.268 62.1C173.788 62.1 175.168 61.74 176.408 61.02C177.688 60.26 178.688 59.24 179.408 57.96C180.128 56.64 180.488 55.12 180.488 53.4C180.488 51.68 180.128 50.16 179.408 48.84C178.688 47.52 177.688 46.5 176.408 45.78C175.168 45.06 173.788 44.7 172.268 44.7C170.708 44.7 169.308 45.06 168.068 45.78C166.828 46.5 165.848 47.52 165.128 48.84C164.408 50.16 164.048 51.68 164.048 53.4Z" fill="#94C21F"/>
<path d="M187 40.2H202.66V45.9H187V40.2ZM191.62 30.6H198.04V68H191.62V30.6Z" fill="#F1AD2E"/>
<path d="M206.889 29.22C206.889 28.1 207.289 27.16 208.089 26.4C208.929 25.64 209.889 25.26 210.969 25.26C212.129 25.26 213.089 25.64 213.849 26.4C214.649 27.16 215.049 28.1 215.049 29.22C215.049 30.3 214.649 31.24 213.849 32.04C213.089 32.8 212.129 33.18 210.969 33.18C209.889 33.18 208.929 32.8 208.089 32.04C207.289 31.24 206.889 30.3 206.889 29.22ZM207.789 40.2H214.149V68H207.789V40.2Z" fill="#F1AD2E"/>
<path d="M222.227 29.22C222.227 28.1 222.627 27.18 223.427 26.46C224.227 25.7 225.187 25.32 226.307 25.32C227.427 25.32 228.367 25.7 229.127 26.46C229.927 27.18 230.327 28.1 230.327 29.22C230.327 30.3 229.927 31.22 229.127 31.98C228.367 32.74 227.427 33.12 226.307 33.12C225.187 33.12 224.227 32.74 223.427 31.98C222.627 31.22 222.227 30.3 222.227 29.22ZM217.547 73.74C217.867 74.22 218.267 74.6 218.747 74.88C219.227 75.16 219.787 75.3 220.427 75.3C221.067 75.3 221.587 75.12 221.987 74.76C222.427 74.44 222.747 73.92 222.947 73.2C223.187 72.48 223.307 71.56 223.307 70.44V40.2H229.667V71.7C229.667 73.7 229.327 75.42 228.647 76.86C227.967 78.34 226.947 79.46 225.587 80.22C224.267 81.02 222.627 81.42 220.667 81.42C219.667 81.42 218.787 81.3 218.027 81.06C217.267 80.86 216.607 80.54 216.047 80.1C215.447 79.7 214.927 79.26 214.487 78.78L217.547 73.74Z" fill="#F1AD2E"/>
<path d="M236.494 54C236.494 51.16 237.134 48.66 238.414 46.5C239.734 44.34 241.514 42.66 243.754 41.46C245.994 40.22 248.534 39.6 251.374 39.6C254.214 39.6 256.734 40.22 258.934 41.46C261.174 42.66 262.954 44.34 264.274 46.5C265.594 48.66 266.254 51.16 266.254 54C266.254 56.8 265.594 59.3 264.274 61.5C262.954 63.66 261.174 65.36 258.934 66.6C256.734 67.8 254.214 68.4 251.374 68.4C248.534 68.4 245.994 67.8 243.754 66.6C241.514 65.36 239.734 63.66 238.414 61.5C237.134 59.3 236.494 56.8 236.494 54ZM243.154 54C243.154 55.72 243.514 57.24 244.234 58.56C244.954 59.84 245.934 60.86 247.174 61.62C248.414 62.34 249.814 62.7 251.374 62.7C252.894 62.7 254.274 62.34 255.514 61.62C256.794 60.86 257.794 59.84 258.514 58.56C259.234 57.24 259.594 55.72 259.594 54C259.594 52.28 259.234 50.76 258.514 49.44C257.794 48.12 256.794 47.1 255.514 46.38C254.274 45.66 252.894 45.3 251.374 45.3C249.814 45.3 248.414 45.66 247.174 46.38C245.934 47.1 244.954 48.12 244.234 49.44C243.514 50.76 243.154 52.28 243.154 54Z" fill="#F1AD2E"/>
<path d="M272.402 21H278.883V67.8H272.402V21Z" fill="#F1AD2E"/>
<path d="M285.068 54C285.068 51.16 285.708 48.66 286.988 46.5C288.308 44.34 290.088 42.66 292.328 41.46C294.568 40.22 297.108 39.6 299.948 39.6C302.788 39.6 305.308 40.22 307.508 41.46C309.748 42.66 311.528 44.34 312.848 46.5C314.168 48.66 314.828 51.16 314.828 54C314.828 56.8 314.168 59.3 312.848 61.5C311.528 63.66 309.748 65.36 307.508 66.6C305.308 67.8 302.788 68.4 299.948 68.4C297.108 68.4 294.568 67.8 292.328 66.6C290.088 65.36 288.308 63.66 286.988 61.5C285.708 59.3 285.068 56.8 285.068 54ZM291.728 54C291.728 55.72 292.088 57.24 292.808 58.56C293.528 59.84 294.508 60.86 295.748 61.62C296.988 62.34 298.388 62.7 299.948 62.7C301.468 62.7 302.848 62.34 304.088 61.62C305.368 60.86 306.368 59.84 307.088 58.56C307.808 57.24 308.168 55.72 308.168 54C308.168 52.28 307.808 50.76 307.088 49.44C306.368 48.12 305.368 47.1 304.088 46.38C302.848 45.66 301.468 45.3 299.948 45.3C298.388 45.3 296.988 45.66 295.748 46.38C294.508 47.1 293.528 48.12 292.808 49.44C292.088 50.76 291.728 52.28 291.728 54Z" fill="#F1AD2E"/>
<path d="M163 87.4H168.22V89.3H163V87.4ZM164.54 84.2H166.68V96.6H164.54V84.2Z" fill="black"/>
<path d="M169.63 83.74C169.63 83.3667 169.763 83.0533 170.03 82.8C170.31 82.5467 170.63 82.42 170.99 82.42C171.376 82.42 171.696 82.5467 171.95 82.8C172.216 83.0533 172.35 83.3667 172.35 83.74C172.35 84.1 172.216 84.4133 171.95 84.68C171.696 84.9333 171.376 85.06 170.99 85.06C170.63 85.06 170.31 84.9333 170.03 84.68C169.763 84.4133 169.63 84.1 169.63 83.74ZM169.93 87.4H172.05V96.6H169.93V87.4Z" fill="black"/>
<path d="M174.742 83.74C174.742 83.3667 174.876 83.06 175.142 82.82C175.409 82.5667 175.729 82.44 176.102 82.44C176.476 82.44 176.789 82.5667 177.042 82.82C177.309 83.06 177.442 83.3667 177.442 83.74C177.442 84.1 177.309 84.4067 177.042 84.66C176.789 84.9133 176.476 85.04 176.102 85.04C175.729 85.04 175.409 84.9133 175.142 84.66C174.876 84.4067 174.742 84.1 174.742 83.74ZM173.182 98.58C173.289 98.74 173.422 98.8667 173.582 98.96C173.742 99.0533 173.929 99.1 174.142 99.1C174.356 99.1 174.529 99.04 174.662 98.92C174.809 98.8133 174.916 98.64 174.982 98.4C175.062 98.16 175.102 97.8533 175.102 97.48V87.4H177.222V97.9C177.222 98.5667 177.109 99.14 176.882 99.62C176.656 100.113 176.316 100.487 175.862 100.74C175.422 101.007 174.876 101.14 174.222 101.14C173.889 101.14 173.596 101.1 173.342 101.02C173.089 100.953 172.869 100.847 172.682 100.7C172.482 100.567 172.309 100.42 172.162 100.26L173.182 98.58Z" fill="black"/>
<path d="M179.498 92C179.498 91.0533 179.711 90.22 180.138 89.5C180.578 88.78 181.171 88.22 181.918 87.82C182.665 87.4067 183.511 87.2 184.458 87.2C185.405 87.2 186.245 87.4067 186.978 87.82C187.725 88.22 188.318 88.78 188.758 89.5C189.198 90.22 189.418 91.0533 189.418 92C189.418 92.9333 189.198 93.7667 188.758 94.5C188.318 95.22 187.725 95.7867 186.978 96.2C186.245 96.6 185.405 96.8 184.458 96.8C183.511 96.8 182.665 96.6 181.918 96.2C181.171 95.7867 180.578 95.22 180.138 94.5C179.711 93.7667 179.498 92.9333 179.498 92ZM181.718 92C181.718 92.5733 181.838 93.08 182.078 93.52C182.318 93.9467 182.645 94.2867 183.058 94.54C183.471 94.78 183.938 94.9 184.458 94.9C184.965 94.9 185.425 94.78 185.838 94.54C186.265 94.2867 186.598 93.9467 186.838 93.52C187.078 93.08 187.198 92.5733 187.198 92C187.198 91.4267 187.078 90.92 186.838 90.48C186.598 90.04 186.265 89.7 185.838 89.46C185.425 89.22 184.965 89.1 184.458 89.1C183.938 89.1 183.471 89.22 183.058 89.46C182.645 89.7 182.318 90.04 182.078 90.48C181.838 90.92 181.718 91.4267 181.718 92Z" fill="black"/>
<path d="M191.467 81H193.628V96.6H191.467V81Z" fill="black"/>
<path d="M195.689 92C195.689 91.0533 195.903 90.22 196.329 89.5C196.769 88.78 197.363 88.22 198.109 87.82C198.856 87.4067 199.703 87.2 200.649 87.2C201.596 87.2 202.436 87.4067 203.169 87.82C203.916 88.22 204.509 88.78 204.949 89.5C205.389 90.22 205.609 91.0533 205.609 92C205.609 92.9333 205.389 93.7667 204.949 94.5C204.509 95.22 203.916 95.7867 203.169 96.2C202.436 96.6 201.596 96.8 200.649 96.8C199.703 96.8 198.856 96.6 198.109 96.2C197.363 95.7867 196.769 95.22 196.329 94.5C195.903 93.7667 195.689 92.9333 195.689 92ZM197.909 92C197.909 92.5733 198.029 93.08 198.269 93.52C198.509 93.9467 198.836 94.2867 199.249 94.54C199.663 94.78 200.129 94.9 200.649 94.9C201.156 94.9 201.616 94.78 202.029 94.54C202.456 94.2867 202.789 93.9467 203.029 93.52C203.269 93.08 203.389 92.5733 203.389 92C203.389 91.4267 203.269 90.92 203.029 90.48C202.789 90.04 202.456 89.7 202.029 89.46C201.616 89.22 201.156 89.1 200.649 89.1C200.129 89.1 199.663 89.22 199.249 89.46C198.836 89.7 198.509 90.04 198.269 90.48C198.029 90.92 197.909 91.4267 197.909 92Z" fill="black"/>
<path d="M208.079 93.58C208.372 93.9 208.666 94.18 208.959 94.42C209.266 94.6467 209.572 94.82 209.879 94.94C210.186 95.0467 210.492 95.1 210.799 95.1C211.186 95.1 211.486 95.0133 211.699 94.84C211.926 94.6667 212.039 94.4267 212.039 94.12C212.039 93.8533 211.952 93.6267 211.779 93.44C211.606 93.24 211.366 93.0733 211.059 92.94C210.752 92.7933 210.392 92.6467 209.979 92.5C209.566 92.34 209.152 92.1533 208.739 91.94C208.339 91.7133 208.006 91.42 207.739 91.06C207.486 90.7 207.359 90.2467 207.359 89.7C207.359 89.14 207.499 88.6733 207.779 88.3C208.072 87.9267 208.459 87.6533 208.939 87.48C209.432 87.2933 209.959 87.2 210.519 87.2C211.026 87.2 211.499 87.2733 211.939 87.42C212.392 87.5667 212.799 87.76 213.159 88C213.519 88.24 213.826 88.5133 214.079 88.82L212.879 90.1C212.572 89.74 212.206 89.4467 211.779 89.22C211.352 88.9933 210.912 88.88 210.459 88.88C210.152 88.88 209.899 88.9467 209.699 89.08C209.499 89.2133 209.399 89.4067 209.399 89.66C209.399 89.8733 209.486 90.0667 209.659 90.24C209.846 90.4 210.086 90.5467 210.379 90.68C210.686 90.8133 211.026 90.9533 211.399 91.1C211.906 91.3 212.372 91.52 212.799 91.76C213.226 92 213.566 92.2933 213.819 92.64C214.086 92.9867 214.219 93.44 214.219 94C214.219 94.8667 213.919 95.5667 213.319 96.1C212.732 96.62 211.932 96.88 210.919 96.88C210.292 96.88 209.712 96.7867 209.179 96.6C208.659 96.4 208.199 96.1467 207.799 95.84C207.412 95.52 207.086 95.1867 206.819 94.84L208.079 93.58Z" fill="black"/>
<path d="M226.132 96.8C225.198 96.8 224.372 96.6 223.652 96.2C222.945 95.8 222.398 95.24 222.012 94.52C221.625 93.8 221.432 92.96 221.432 92C221.432 91.0267 221.625 90.18 222.012 89.46C222.412 88.74 222.972 88.1867 223.692 87.8C224.412 87.4 225.258 87.2 226.232 87.2C227.205 87.2 228.032 87.3867 228.712 87.76C229.392 88.1333 229.912 88.6733 230.272 89.38C230.645 90.0733 230.832 90.9133 230.832 91.9C230.832 92.0067 230.825 92.12 230.812 92.24C230.812 92.36 230.805 92.4467 230.792 92.5H222.712V91.02H228.952L228.292 91.94C228.332 91.86 228.372 91.7533 228.412 91.62C228.465 91.4733 228.492 91.3533 228.492 91.26C228.492 90.7667 228.392 90.34 228.192 89.98C228.005 89.62 227.738 89.34 227.392 89.14C227.058 88.94 226.665 88.84 226.212 88.84C225.665 88.84 225.198 88.96 224.812 89.2C224.425 89.44 224.132 89.7867 223.932 90.24C223.732 90.6933 223.625 91.2533 223.612 91.92C223.612 92.5867 223.712 93.1533 223.912 93.62C224.112 94.0733 224.405 94.42 224.792 94.66C225.192 94.9 225.672 95.02 226.232 95.02C226.818 95.02 227.332 94.9 227.772 94.66C228.212 94.42 228.578 94.0533 228.872 93.56L230.732 94.32C230.252 95.1467 229.632 95.7667 228.872 96.18C228.112 96.5933 227.198 96.8 226.132 96.8Z" fill="black"/>
<path d="M234.333 92C234.333 92.5867 234.46 93.1 234.713 93.54C234.967 93.9667 235.307 94.3067 235.733 94.56C236.173 94.8133 236.66 94.94 237.193 94.94C237.633 94.94 238.053 94.8733 238.453 94.74C238.853 94.6067 239.207 94.42 239.513 94.18C239.82 93.94 240.047 93.6733 240.193 93.38V95.76C239.873 96.08 239.44 96.3333 238.893 96.52C238.347 96.7067 237.747 96.8 237.093 96.8C236.147 96.8 235.293 96.6 234.533 96.2C233.787 95.7867 233.193 95.22 232.753 94.5C232.327 93.7667 232.113 92.9333 232.113 92C232.113 91.0533 232.327 90.22 232.753 89.5C233.193 88.78 233.787 88.22 234.533 87.82C235.293 87.4067 236.147 87.2 237.093 87.2C237.747 87.2 238.347 87.2933 238.893 87.48C239.44 87.6667 239.873 87.92 240.193 88.24V90.62C240.047 90.3133 239.813 90.0467 239.493 89.82C239.187 89.58 238.833 89.3933 238.433 89.26C238.033 89.1267 237.62 89.06 237.193 89.06C236.66 89.06 236.173 89.1867 235.733 89.44C235.307 89.6933 234.967 90.04 234.713 90.48C234.46 90.92 234.333 91.4267 234.333 92Z" fill="black"/>
<path d="M241.881 92C241.881 91.0533 242.094 90.22 242.521 89.5C242.961 88.78 243.554 88.22 244.301 87.82C245.047 87.4067 245.894 87.2 246.841 87.2C247.787 87.2 248.627 87.4067 249.361 87.82C250.107 88.22 250.701 88.78 251.141 89.5C251.581 90.22 251.801 91.0533 251.801 92C251.801 92.9333 251.581 93.7667 251.141 94.5C250.701 95.22 250.107 95.7867 249.361 96.2C248.627 96.6 247.787 96.8 246.841 96.8C245.894 96.8 245.047 96.6 244.301 96.2C243.554 95.7867 242.961 95.22 242.521 94.5C242.094 93.7667 241.881 92.9333 241.881 92ZM244.101 92C244.101 92.5733 244.221 93.08 244.461 93.52C244.701 93.9467 245.027 94.2867 245.441 94.54C245.854 94.78 246.321 94.9 246.841 94.9C247.347 94.9 247.807 94.78 248.221 94.54C248.647 94.2867 248.981 93.9467 249.221 93.52C249.461 93.08 249.581 92.5733 249.581 92C249.581 91.4267 249.461 90.92 249.221 90.48C248.981 90.04 248.647 89.7 248.221 89.46C247.807 89.22 247.347 89.1 246.841 89.1C246.321 89.1 245.854 89.22 245.441 89.46C245.027 89.7 244.701 90.04 244.461 90.48C244.221 90.92 244.101 91.4267 244.101 92Z" fill="black"/>
<path d="M253.85 81H256.01V96.6H253.85V81Z" fill="black"/>
<path d="M258.072 92C258.072 91.0533 258.286 90.22 258.712 89.5C259.152 88.78 259.746 88.22 260.492 87.82C261.239 87.4067 262.086 87.2 263.032 87.2C263.979 87.2 264.819 87.4067 265.552 87.82C266.299 88.22 266.892 88.78 267.332 89.5C267.772 90.22 267.992 91.0533 267.992 92C267.992 92.9333 267.772 93.7667 267.332 94.5C266.892 95.22 266.299 95.7867 265.552 96.2C264.819 96.6 263.979 96.8 263.032 96.8C262.086 96.8 261.239 96.6 260.492 96.2C259.746 95.7867 259.152 95.22 258.712 94.5C258.286 93.7667 258.072 92.9333 258.072 92ZM260.292 92C260.292 92.5733 260.412 93.08 260.652 93.52C260.892 93.9467 261.219 94.2867 261.632 94.54C262.046 94.78 262.512 94.9 263.032 94.9C263.539 94.9 263.999 94.78 264.412 94.54C264.839 94.2867 265.172 93.9467 265.412 93.52C265.652 93.08 265.772 92.5733 265.772 92C265.772 91.4267 265.652 90.92 265.412 90.48C265.172 90.04 264.839 89.7 264.412 89.46C263.999 89.22 263.539 89.1 263.032 89.1C262.512 89.1 262.046 89.22 261.632 89.46C261.219 89.7 260.892 90.04 260.652 90.48C260.412 90.92 260.292 91.4267 260.292 92ZM266.232 82.7L262.632 85.7L261.412 85L264.412 81.8L266.232 82.7Z" fill="black"/>
<path d="M269.522 97.22H271.662C271.675 97.6333 271.788 98.0067 272.002 98.34C272.228 98.6733 272.535 98.9333 272.922 99.12C273.308 99.3067 273.755 99.4 274.262 99.4C274.715 99.4 275.148 99.2933 275.562 99.08C275.975 98.8667 276.308 98.54 276.562 98.1C276.828 97.66 276.962 97.0933 276.962 96.4V87.4H279.082V96.4C279.082 97.5067 278.855 98.42 278.402 99.14C277.962 99.86 277.382 100.393 276.662 100.74C275.942 101.1 275.162 101.28 274.322 101.28C273.322 101.28 272.468 101.107 271.762 100.76C271.055 100.427 270.508 99.9533 270.122 99.34C269.748 98.7267 269.548 98.02 269.522 97.22ZM269.342 91.96C269.342 90.9333 269.548 90.0733 269.962 89.38C270.375 88.6733 270.922 88.1333 271.602 87.76C272.295 87.3867 273.035 87.2 273.822 87.2C274.595 87.2 275.268 87.3933 275.842 87.78C276.428 88.1533 276.888 88.6933 277.222 89.4C277.568 90.1067 277.742 90.96 277.742 91.96C277.742 92.9467 277.568 93.7933 277.222 94.5C276.888 95.2067 276.428 95.7533 275.842 96.14C275.268 96.5133 274.595 96.7 273.822 96.7C273.035 96.7 272.295 96.5133 271.602 96.14C270.922 95.7667 270.375 95.2267 269.962 94.52C269.548 93.8133 269.342 92.96 269.342 91.96ZM271.582 91.96C271.582 92.5733 271.708 93.0933 271.962 93.52C272.215 93.9467 272.548 94.2733 272.962 94.5C273.388 94.7133 273.848 94.82 274.342 94.82C274.755 94.82 275.162 94.7133 275.562 94.5C275.975 94.2867 276.308 93.9667 276.562 93.54C276.828 93.1 276.962 92.5733 276.962 91.96C276.962 91.48 276.882 91.0667 276.722 90.72C276.575 90.36 276.375 90.06 276.122 89.82C275.868 89.5667 275.582 89.38 275.262 89.26C274.955 89.14 274.648 89.08 274.342 89.08C273.848 89.08 273.388 89.1933 272.962 89.42C272.548 89.6333 272.215 89.9533 271.962 90.38C271.708 90.8067 271.582 91.3333 271.582 91.96Z" fill="black"/>
<path d="M281.68 83.74C281.68 83.3667 281.814 83.0533 282.08 82.8C282.36 82.5467 282.68 82.42 283.04 82.42C283.427 82.42 283.747 82.5467 284 82.8C284.267 83.0533 284.4 83.3667 284.4 83.74C284.4 84.1 284.267 84.4133 284 84.68C283.747 84.9333 283.427 85.06 283.04 85.06C282.68 85.06 282.36 84.9333 282.08 84.68C281.814 84.4133 281.68 84.1 281.68 83.74ZM281.98 87.4H284.1V96.6H281.98V87.4Z" fill="black"/>
<path d="M288.513 92C288.513 92.5867 288.64 93.1 288.893 93.54C289.146 93.9667 289.486 94.3067 289.913 94.56C290.353 94.8133 290.84 94.94 291.373 94.94C291.813 94.94 292.233 94.8733 292.633 94.74C293.033 94.6067 293.386 94.42 293.693 94.18C294 93.94 294.226 93.6733 294.373 93.38V95.76C294.053 96.08 293.62 96.3333 293.073 96.52C292.526 96.7067 291.926 96.8 291.273 96.8C290.326 96.8 289.473 96.6 288.713 96.2C287.966 95.7867 287.373 95.22 286.933 94.5C286.506 93.7667 286.293 92.9333 286.293 92C286.293 91.0533 286.506 90.22 286.933 89.5C287.373 88.78 287.966 88.22 288.713 87.82C289.473 87.4067 290.326 87.2 291.273 87.2C291.926 87.2 292.526 87.2933 293.073 87.48C293.62 87.6667 294.053 87.92 294.373 88.24V90.62C294.226 90.3133 293.993 90.0467 293.673 89.82C293.366 89.58 293.013 89.3933 292.613 89.26C292.213 89.1267 291.8 89.06 291.373 89.06C290.84 89.06 290.353 89.1867 289.913 89.44C289.486 89.6933 289.146 90.04 288.893 90.48C288.64 90.92 288.513 91.4267 288.513 92Z" fill="black"/>
<path d="M296.06 92C296.06 91.0533 296.274 90.22 296.7 89.5C297.14 88.78 297.734 88.22 298.48 87.82C299.227 87.4067 300.074 87.2 301.02 87.2C301.967 87.2 302.807 87.4067 303.54 87.82C304.287 88.22 304.88 88.78 305.32 89.5C305.76 90.22 305.98 91.0533 305.98 92C305.98 92.9333 305.76 93.7667 305.32 94.5C304.88 95.22 304.287 95.7867 303.54 96.2C302.807 96.6 301.967 96.8 301.02 96.8C300.074 96.8 299.227 96.6 298.48 96.2C297.734 95.7867 297.14 95.22 296.7 94.5C296.274 93.7667 296.06 92.9333 296.06 92ZM298.28 92C298.28 92.5733 298.4 93.08 298.64 93.52C298.88 93.9467 299.207 94.2867 299.62 94.54C300.034 94.78 300.5 94.9 301.02 94.9C301.527 94.9 301.987 94.78 302.4 94.54C302.827 94.2867 303.16 93.9467 303.4 93.52C303.64 93.08 303.76 92.5733 303.76 92C303.76 91.4267 303.64 90.92 303.4 90.48C303.16 90.04 302.827 89.7 302.4 89.46C301.987 89.22 301.527 89.1 301.02 89.1C300.5 89.1 300.034 89.22 299.62 89.46C299.207 89.7 298.88 90.04 298.64 90.48C298.4 90.92 298.28 91.4267 298.28 92Z" fill="black"/>
<path d="M308.45 93.58C308.743 93.9 309.037 94.18 309.33 94.42C309.637 94.6467 309.943 94.82 310.25 94.94C310.557 95.0467 310.863 95.1 311.17 95.1C311.557 95.1 311.857 95.0133 312.07 94.84C312.297 94.6667 312.41 94.4267 312.41 94.12C312.41 93.8533 312.323 93.6267 312.15 93.44C311.977 93.24 311.737 93.0733 311.43 92.94C311.123 92.7933 310.763 92.6467 310.35 92.5C309.937 92.34 309.523 92.1533 309.11 91.94C308.71 91.7133 308.377 91.42 308.11 91.06C307.857 90.7 307.73 90.2467 307.73 89.7C307.73 89.14 307.87 88.6733 308.15 88.3C308.443 87.9267 308.83 87.6533 309.31 87.48C309.803 87.2933 310.33 87.2 310.89 87.2C311.397 87.2 311.87 87.2733 312.31 87.42C312.763 87.5667 313.17 87.76 313.53 88C313.89 88.24 314.197 88.5133 314.45 88.82L313.25 90.1C312.943 89.74 312.577 89.4467 312.15 89.22C311.723 88.9933 311.283 88.88 310.83 88.88C310.523 88.88 310.27 88.9467 310.07 89.08C309.87 89.2133 309.77 89.4067 309.77 89.66C309.77 89.8733 309.857 90.0667 310.03 90.24C310.217 90.4 310.457 90.5467 310.75 90.68C311.057 90.8133 311.397 90.9533 311.77 91.1C312.277 91.3 312.743 91.52 313.17 91.76C313.597 92 313.937 92.2933 314.19 92.64C314.457 92.9867 314.59 93.44 314.59 94C314.59 94.8667 314.29 95.5667 313.69 96.1C313.103 96.62 312.303 96.88 311.29 96.88C310.663 96.88 310.083 96.7867 309.55 96.6C309.03 96.4 308.57 96.1467 308.17 95.84C307.783 95.52 307.457 95.1867 307.19 94.84L308.45 93.58Z" fill="black"/>
</svg>
