<svg width="312" height="98" viewBox="0 0 312 98" fill="none" xmlns="http://www.w3.org/2000/svg">
<path d="M160 83.8H165.22V85.7H160V83.8ZM161.54 80.6H163.68V93H161.54V80.6Z" fill="black"/>
<path d="M166.63 80.14C166.63 79.7667 166.763 79.4533 167.03 79.2C167.31 78.9467 167.63 78.82 167.99 78.82C168.376 78.82 168.696 78.9467 168.95 79.2C169.216 79.4533 169.35 79.7667 169.35 80.14C169.35 80.5 169.216 80.8133 168.95 81.08C168.696 81.3333 168.376 81.46 167.99 81.46C167.63 81.46 167.31 81.3333 167.03 81.08C166.763 80.8133 166.63 80.5 166.63 80.14ZM166.93 83.8H169.05V93H166.93V83.8Z" fill="black"/>
<path d="M171.742 80.14C171.742 79.7667 171.876 79.46 172.142 79.22C172.409 78.9667 172.729 78.84 173.102 78.84C173.476 78.84 173.789 78.9667 174.042 79.22C174.309 79.46 174.442 79.7667 174.442 80.14C174.442 80.5 174.309 80.8067 174.042 81.06C173.789 81.3133 173.476 81.44 173.102 81.44C172.729 81.44 172.409 81.3133 172.142 81.06C171.876 80.8067 171.742 80.5 171.742 80.14ZM170.182 94.98C170.289 95.14 170.422 95.2667 170.582 95.36C170.742 95.4533 170.929 95.5 171.142 95.5C171.356 95.5 171.529 95.44 171.662 95.32C171.809 95.2133 171.916 95.04 171.982 94.8C172.062 94.56 172.102 94.2533 172.102 93.88V83.8H174.222V94.3C174.222 94.9667 174.109 95.54 173.882 96.02C173.656 96.5133 173.316 96.8867 172.862 97.14C172.422 97.4067 171.876 97.54 171.222 97.54C170.889 97.54 170.596 97.5 170.342 97.42C170.089 97.3533 169.869 97.2467 169.682 97.1C169.482 96.9667 169.309 96.82 169.162 96.66L170.182 94.98Z" fill="black"/>
<path d="M176.498 88.4C176.498 87.4533 176.711 86.62 177.138 85.9C177.578 85.18 178.171 84.62 178.918 84.22C179.665 83.8067 180.511 83.6 181.458 83.6C182.405 83.6 183.245 83.8067 183.978 84.22C184.725 84.62 185.318 85.18 185.758 85.9C186.198 86.62 186.418 87.4533 186.418 88.4C186.418 89.3333 186.198 90.1667 185.758 90.9C185.318 91.62 184.725 92.1867 183.978 92.6C183.245 93 182.405 93.2 181.458 93.2C180.511 93.2 179.665 93 178.918 92.6C178.171 92.1867 177.578 91.62 177.138 90.9C176.711 90.1667 176.498 89.3333 176.498 88.4ZM178.718 88.4C178.718 88.9733 178.838 89.48 179.078 89.92C179.318 90.3467 179.645 90.6867 180.058 90.94C180.471 91.18 180.938 91.3 181.458 91.3C181.965 91.3 182.425 91.18 182.838 90.94C183.265 90.6867 183.598 90.3467 183.838 89.92C184.078 89.48 184.198 88.9733 184.198 88.4C184.198 87.8267 184.078 87.32 183.838 86.88C183.598 86.44 183.265 86.1 182.838 85.86C182.425 85.62 181.965 85.5 181.458 85.5C180.938 85.5 180.471 85.62 180.058 85.86C179.645 86.1 179.318 86.44 179.078 86.88C178.838 87.32 178.718 87.8267 178.718 88.4Z" fill="black"/>
<path d="M188.467 77.4H190.628V93H188.467V77.4Z" fill="black"/>
<path d="M192.689 88.4C192.689 87.4533 192.903 86.62 193.329 85.9C193.769 85.18 194.363 84.62 195.109 84.22C195.856 83.8067 196.703 83.6 197.649 83.6C198.596 83.6 199.436 83.8067 200.169 84.22C200.916 84.62 201.509 85.18 201.949 85.9C202.389 86.62 202.609 87.4533 202.609 88.4C202.609 89.3333 202.389 90.1667 201.949 90.9C201.509 91.62 200.916 92.1867 200.169 92.6C199.436 93 198.596 93.2 197.649 93.2C196.703 93.2 195.856 93 195.109 92.6C194.363 92.1867 193.769 91.62 193.329 90.9C192.903 90.1667 192.689 89.3333 192.689 88.4ZM194.909 88.4C194.909 88.9733 195.029 89.48 195.269 89.92C195.509 90.3467 195.836 90.6867 196.249 90.94C196.663 91.18 197.129 91.3 197.649 91.3C198.156 91.3 198.616 91.18 199.029 90.94C199.456 90.6867 199.789 90.3467 200.029 89.92C200.269 89.48 200.389 88.9733 200.389 88.4C200.389 87.8267 200.269 87.32 200.029 86.88C199.789 86.44 199.456 86.1 199.029 85.86C198.616 85.62 198.156 85.5 197.649 85.5C197.129 85.5 196.663 85.62 196.249 85.86C195.836 86.1 195.509 86.44 195.269 86.88C195.029 87.32 194.909 87.8267 194.909 88.4Z" fill="black"/>
<path d="M205.079 89.98C205.372 90.3 205.666 90.58 205.959 90.82C206.266 91.0467 206.572 91.22 206.879 91.34C207.186 91.4467 207.492 91.5 207.799 91.5C208.186 91.5 208.486 91.4133 208.699 91.24C208.926 91.0667 209.039 90.8267 209.039 90.52C209.039 90.2533 208.952 90.0267 208.779 89.84C208.606 89.64 208.366 89.4733 208.059 89.34C207.752 89.1933 207.392 89.0467 206.979 88.9C206.566 88.74 206.152 88.5533 205.739 88.34C205.339 88.1133 205.006 87.82 204.739 87.46C204.486 87.1 204.359 86.6467 204.359 86.1C204.359 85.54 204.499 85.0733 204.779 84.7C205.072 84.3267 205.459 84.0533 205.939 83.88C206.432 83.6933 206.959 83.6 207.519 83.6C208.026 83.6 208.499 83.6733 208.939 83.82C209.392 83.9667 209.799 84.16 210.159 84.4C210.519 84.64 210.826 84.9133 211.079 85.22L209.879 86.5C209.572 86.14 209.206 85.8467 208.779 85.62C208.352 85.3933 207.912 85.28 207.459 85.28C207.152 85.28 206.899 85.3467 206.699 85.48C206.499 85.6133 206.399 85.8067 206.399 86.06C206.399 86.2733 206.486 86.4667 206.659 86.64C206.846 86.8 207.086 86.9467 207.379 87.08C207.686 87.2133 208.026 87.3533 208.399 87.5C208.906 87.7 209.372 87.92 209.799 88.16C210.226 88.4 210.566 88.6933 210.819 89.04C211.086 89.3867 211.219 89.84 211.219 90.4C211.219 91.2667 210.919 91.9667 210.319 92.5C209.732 93.02 208.932 93.28 207.919 93.28C207.292 93.28 206.712 93.1867 206.179 93C205.659 92.8 205.199 92.5467 204.799 92.24C204.412 91.92 204.086 91.5867 203.819 91.24L205.079 89.98Z" fill="black"/>
<path d="M223.132 93.2C222.198 93.2 221.372 93 220.652 92.6C219.945 92.2 219.398 91.64 219.012 90.92C218.625 90.2 218.432 89.36 218.432 88.4C218.432 87.4267 218.625 86.58 219.012 85.86C219.412 85.14 219.972 84.5867 220.692 84.2C221.412 83.8 222.258 83.6 223.232 83.6C224.205 83.6 225.032 83.7867 225.712 84.16C226.392 84.5333 226.912 85.0733 227.272 85.78C227.645 86.4733 227.832 87.3133 227.832 88.3C227.832 88.4067 227.825 88.52 227.812 88.64C227.812 88.76 227.805 88.8467 227.792 88.9H219.712V87.42H225.952L225.292 88.34C225.332 88.26 225.372 88.1533 225.412 88.02C225.465 87.8733 225.492 87.7533 225.492 87.66C225.492 87.1667 225.392 86.74 225.192 86.38C225.005 86.02 224.738 85.74 224.392 85.54C224.058 85.34 223.665 85.24 223.212 85.24C222.665 85.24 222.198 85.36 221.812 85.6C221.425 85.84 221.132 86.1867 220.932 86.64C220.732 87.0933 220.625 87.6533 220.612 88.32C220.612 88.9867 220.712 89.5533 220.912 90.02C221.112 90.4733 221.405 90.82 221.792 91.06C222.192 91.3 222.672 91.42 223.232 91.42C223.818 91.42 224.332 91.3 224.772 91.06C225.212 90.82 225.578 90.4533 225.872 89.96L227.732 90.72C227.252 91.5467 226.632 92.1667 225.872 92.58C225.112 92.9933 224.198 93.2 223.132 93.2Z" fill="black"/>
<path d="M231.333 88.4C231.333 88.9867 231.46 89.5 231.713 89.94C231.967 90.3667 232.307 90.7067 232.733 90.96C233.173 91.2133 233.66 91.34 234.193 91.34C234.633 91.34 235.053 91.2733 235.453 91.14C235.853 91.0067 236.207 90.82 236.513 90.58C236.82 90.34 237.047 90.0733 237.193 89.78V92.16C236.873 92.48 236.44 92.7333 235.893 92.92C235.347 93.1067 234.747 93.2 234.093 93.2C233.147 93.2 232.293 93 231.533 92.6C230.787 92.1867 230.193 91.62 229.753 90.9C229.327 90.1667 229.113 89.3333 229.113 88.4C229.113 87.4533 229.327 86.62 229.753 85.9C230.193 85.18 230.787 84.62 231.533 84.22C232.293 83.8067 233.147 83.6 234.093 83.6C234.747 83.6 235.347 83.6933 235.893 83.88C236.44 84.0667 236.873 84.32 237.193 84.64V87.02C237.047 86.7133 236.813 86.4467 236.493 86.22C236.187 85.98 235.833 85.7933 235.433 85.66C235.033 85.5267 234.62 85.46 234.193 85.46C233.66 85.46 233.173 85.5867 232.733 85.84C232.307 86.0933 231.967 86.44 231.713 86.88C231.46 87.32 231.333 87.8267 231.333 88.4Z" fill="black"/>
<path d="M238.881 88.4C238.881 87.4533 239.094 86.62 239.521 85.9C239.961 85.18 240.554 84.62 241.301 84.22C242.047 83.8067 242.894 83.6 243.841 83.6C244.787 83.6 245.627 83.8067 246.361 84.22C247.107 84.62 247.701 85.18 248.141 85.9C248.581 86.62 248.801 87.4533 248.801 88.4C248.801 89.3333 248.581 90.1667 248.141 90.9C247.701 91.62 247.107 92.1867 246.361 92.6C245.627 93 244.787 93.2 243.841 93.2C242.894 93.2 242.047 93 241.301 92.6C240.554 92.1867 239.961 91.62 239.521 90.9C239.094 90.1667 238.881 89.3333 238.881 88.4ZM241.101 88.4C241.101 88.9733 241.221 89.48 241.461 89.92C241.701 90.3467 242.027 90.6867 242.441 90.94C242.854 91.18 243.321 91.3 243.841 91.3C244.347 91.3 244.807 91.18 245.221 90.94C245.647 90.6867 245.981 90.3467 246.221 89.92C246.461 89.48 246.581 88.9733 246.581 88.4C246.581 87.8267 246.461 87.32 246.221 86.88C245.981 86.44 245.647 86.1 245.221 85.86C244.807 85.62 244.347 85.5 243.841 85.5C243.321 85.5 242.854 85.62 242.441 85.86C242.027 86.1 241.701 86.44 241.461 86.88C241.221 87.32 241.101 87.8267 241.101 88.4Z" fill="black"/>
<path d="M250.85 77.4H253.01V93H250.85V77.4Z" fill="black"/>
<path d="M255.072 88.4C255.072 87.4533 255.286 86.62 255.712 85.9C256.152 85.18 256.746 84.62 257.492 84.22C258.239 83.8067 259.086 83.6 260.032 83.6C260.979 83.6 261.819 83.8067 262.552 84.22C263.299 84.62 263.892 85.18 264.332 85.9C264.772 86.62 264.992 87.4533 264.992 88.4C264.992 89.3333 264.772 90.1667 264.332 90.9C263.892 91.62 263.299 92.1867 262.552 92.6C261.819 93 260.979 93.2 260.032 93.2C259.086 93.2 258.239 93 257.492 92.6C256.746 92.1867 256.152 91.62 255.712 90.9C255.286 90.1667 255.072 89.3333 255.072 88.4ZM257.292 88.4C257.292 88.9733 257.412 89.48 257.652 89.92C257.892 90.3467 258.219 90.6867 258.632 90.94C259.046 91.18 259.512 91.3 260.032 91.3C260.539 91.3 260.999 91.18 261.412 90.94C261.839 90.6867 262.172 90.3467 262.412 89.92C262.652 89.48 262.772 88.9733 262.772 88.4C262.772 87.8267 262.652 87.32 262.412 86.88C262.172 86.44 261.839 86.1 261.412 85.86C260.999 85.62 260.539 85.5 260.032 85.5C259.512 85.5 259.046 85.62 258.632 85.86C258.219 86.1 257.892 86.44 257.652 86.88C257.412 87.32 257.292 87.8267 257.292 88.4ZM263.232 79.1L259.632 82.1L258.412 81.4L261.412 78.2L263.232 79.1Z" fill="black"/>
<path d="M266.522 93.62H268.662C268.675 94.0333 268.788 94.4067 269.002 94.74C269.228 95.0733 269.535 95.3333 269.922 95.52C270.308 95.7067 270.755 95.8 271.262 95.8C271.715 95.8 272.148 95.6933 272.562 95.48C272.975 95.2667 273.308 94.94 273.562 94.5C273.828 94.06 273.962 93.4933 273.962 92.8V83.8H276.082V92.8C276.082 93.9067 275.855 94.82 275.402 95.54C274.962 96.26 274.382 96.7933 273.662 97.14C272.942 97.5 272.162 97.68 271.322 97.68C270.322 97.68 269.468 97.5067 268.762 97.16C268.055 96.8267 267.508 96.3533 267.122 95.74C266.748 95.1267 266.548 94.42 266.522 93.62ZM266.342 88.36C266.342 87.3333 266.548 86.4733 266.962 85.78C267.375 85.0733 267.922 84.5333 268.602 84.16C269.295 83.7867 270.035 83.6 270.822 83.6C271.595 83.6 272.268 83.7933 272.842 84.18C273.428 84.5533 273.888 85.0933 274.222 85.8C274.568 86.5067 274.742 87.36 274.742 88.36C274.742 89.3467 274.568 90.1933 274.222 90.9C273.888 91.6067 273.428 92.1533 272.842 92.54C272.268 92.9133 271.595 93.1 270.822 93.1C270.035 93.1 269.295 92.9133 268.602 92.54C267.922 92.1667 267.375 91.6267 266.962 90.92C266.548 90.2133 266.342 89.36 266.342 88.36ZM268.582 88.36C268.582 88.9733 268.708 89.4933 268.962 89.92C269.215 90.3467 269.548 90.6733 269.962 90.9C270.388 91.1133 270.848 91.22 271.342 91.22C271.755 91.22 272.162 91.1133 272.562 90.9C272.975 90.6867 273.308 90.3667 273.562 89.94C273.828 89.5 273.962 88.9733 273.962 88.36C273.962 87.88 273.882 87.4667 273.722 87.12C273.575 86.76 273.375 86.46 273.122 86.22C272.868 85.9667 272.582 85.78 272.262 85.66C271.955 85.54 271.648 85.48 271.342 85.48C270.848 85.48 270.388 85.5933 269.962 85.82C269.548 86.0333 269.215 86.3533 268.962 86.78C268.708 87.2067 268.582 87.7333 268.582 88.36Z" fill="black"/>
<path d="M278.68 80.14C278.68 79.7667 278.814 79.4533 279.08 79.2C279.36 78.9467 279.68 78.82 280.04 78.82C280.427 78.82 280.747 78.9467 281 79.2C281.267 79.4533 281.4 79.7667 281.4 80.14C281.4 80.5 281.267 80.8133 281 81.08C280.747 81.3333 280.427 81.46 280.04 81.46C279.68 81.46 279.36 81.3333 279.08 81.08C278.814 80.8133 278.68 80.5 278.68 80.14ZM278.98 83.8H281.1V93H278.98V83.8Z" fill="black"/>
<path d="M285.513 88.4C285.513 88.9867 285.64 89.5 285.893 89.94C286.146 90.3667 286.486 90.7067 286.913 90.96C287.353 91.2133 287.84 91.34 288.373 91.34C288.813 91.34 289.233 91.2733 289.633 91.14C290.033 91.0067 290.386 90.82 290.693 90.58C291 90.34 291.226 90.0733 291.373 89.78V92.16C291.053 92.48 290.62 92.7333 290.073 92.92C289.526 93.1067 288.926 93.2 288.273 93.2C287.326 93.2 286.473 93 285.713 92.6C284.966 92.1867 284.373 91.62 283.933 90.9C283.506 90.1667 283.293 89.3333 283.293 88.4C283.293 87.4533 283.506 86.62 283.933 85.9C284.373 85.18 284.966 84.62 285.713 84.22C286.473 83.8067 287.326 83.6 288.273 83.6C288.926 83.6 289.526 83.6933 290.073 83.88C290.62 84.0667 291.053 84.32 291.373 84.64V87.02C291.226 86.7133 290.993 86.4467 290.673 86.22C290.366 85.98 290.013 85.7933 289.613 85.66C289.213 85.5267 288.8 85.46 288.373 85.46C287.84 85.46 287.353 85.5867 286.913 85.84C286.486 86.0933 286.146 86.44 285.893 86.88C285.64 87.32 285.513 87.8267 285.513 88.4Z" fill="black"/>
<path d="M293.06 88.4C293.06 87.4533 293.274 86.62 293.7 85.9C294.14 85.18 294.734 84.62 295.48 84.22C296.227 83.8067 297.074 83.6 298.02 83.6C298.967 83.6 299.807 83.8067 300.54 84.22C301.287 84.62 301.88 85.18 302.32 85.9C302.76 86.62 302.98 87.4533 302.98 88.4C302.98 89.3333 302.76 90.1667 302.32 90.9C301.88 91.62 301.287 92.1867 300.54 92.6C299.807 93 298.967 93.2 298.02 93.2C297.074 93.2 296.227 93 295.48 92.6C294.734 92.1867 294.14 91.62 293.7 90.9C293.274 90.1667 293.06 89.3333 293.06 88.4ZM295.28 88.4C295.28 88.9733 295.4 89.48 295.64 89.92C295.88 90.3467 296.207 90.6867 296.62 90.94C297.034 91.18 297.5 91.3 298.02 91.3C298.527 91.3 298.987 91.18 299.4 90.94C299.827 90.6867 300.16 90.3467 300.4 89.92C300.64 89.48 300.76 88.9733 300.76 88.4C300.76 87.8267 300.64 87.32 300.4 86.88C300.16 86.44 299.827 86.1 299.4 85.86C298.987 85.62 298.527 85.5 298.02 85.5C297.5 85.5 297.034 85.62 296.62 85.86C296.207 86.1 295.88 86.44 295.64 86.88C295.4 87.32 295.28 87.8267 295.28 88.4Z" fill="black"/>
<path d="M305.45 89.98C305.743 90.3 306.037 90.58 306.33 90.82C306.637 91.0467 306.943 91.22 307.25 91.34C307.557 91.4467 307.863 91.5 308.17 91.5C308.557 91.5 308.857 91.4133 309.07 91.24C309.297 91.0667 309.41 90.8267 309.41 90.52C309.41 90.2533 309.323 90.0267 309.15 89.84C308.977 89.64 308.737 89.4733 308.43 89.34C308.123 89.1933 307.763 89.0467 307.35 88.9C306.937 88.74 306.523 88.5533 306.11 88.34C305.71 88.1133 305.377 87.82 305.11 87.46C304.857 87.1 304.73 86.6467 304.73 86.1C304.73 85.54 304.87 85.0733 305.15 84.7C305.443 84.3267 305.83 84.0533 306.31 83.88C306.803 83.6933 307.33 83.6 307.89 83.6C308.397 83.6 308.87 83.6733 309.31 83.82C309.763 83.9667 310.17 84.16 310.53 84.4C310.89 84.64 311.197 84.9133 311.45 85.22L310.25 86.5C309.943 86.14 309.577 85.8467 309.15 85.62C308.723 85.3933 308.283 85.28 307.83 85.28C307.523 85.28 307.27 85.3467 307.07 85.48C306.87 85.6133 306.77 85.8067 306.77 86.06C306.77 86.2733 306.857 86.4667 307.03 86.64C307.217 86.8 307.457 86.9467 307.75 87.08C308.057 87.2133 308.397 87.3533 308.77 87.5C309.277 87.7 309.743 87.92 310.17 88.16C310.597 88.4 310.937 88.6933 311.19 89.04C311.457 89.3867 311.59 89.84 311.59 90.4C311.59 91.2667 311.29 91.9667 310.69 92.5C310.103 93.02 309.303 93.28 308.29 93.28C307.663 93.28 307.083 93.1867 306.55 93C306.03 92.8 305.57 92.5467 305.17 92.24C304.783 91.92 304.457 91.5867 304.19 91.24L305.45 89.98Z" fill="black"/>
<path d="M77.7485 0.0346062C78.5075 0.112006 79.9545 0.145605 80.4835 0.591205C80.5375 1.1869 80.5645 1.53961 80.7095 2.13341C82.3025 2.37371 88.0895 -1.78099 89.8005 0.911105C91.4765 3.54741 88.0275 8.56931 85.5835 9.85081C83.4135 10.9892 82.9855 11.4501 80.7065 11.2617C80.5065 17.8449 80.9445 25.75 80.5885 32.0044C82.4395 31.083 87.9115 28.507 89.7185 30.2947C91.0085 35.0775 87.4615 39.4062 82.9135 40.5819C82.1595 40.7708 81.3975 40.9199 80.6275 41.029L80.6265 57.4678C80.6285 59.7143 80.7995 63.4167 80.6485 65.4715C81.9275 65.4689 83.0655 65.4587 84.3455 65.5606C84.6625 66.2914 85.0855 66.998 84.8885 67.7388C84.0215 68.6134 82.6745 68.4604 81.3955 68.4674L12.5705 68.4064C9.2737 68.3914 5.9137 68.4084 2.6156 68.3564C1.9546 68.3464 0.751601 68.0724 0.260101 67.605C0.0377013 67.3934 0.0767 67.3069 0 66.9793C0.9328 65.1546 3.6339 65.4368 5.3247 65.5285C5.23 63.4232 5.2961 60.3382 5.3941 58.193C4.0402 58.1715 1.6411 58.3281 0.593801 57.5359C0.230401 56.7131 0.2196 56.9833 0.3304 56.1603C1.5915 54.4849 9.3788 54.943 11.6023 55.1487C11.6203 52.6302 11.6584 50.1119 11.717 47.594C10.3362 48.3311 4.6104 52.5879 3.8709 50.2647C3.0397 47.653 7.6871 47.3247 8.5457 45.9464L8.8648 45.7467C9.5113 45.4898 10.9389 44.587 11.5988 44.1938C11.8607 40.7229 11.6704 34.9055 11.5084 31.4058C10.2458 32.7931 4.503 37.1761 2.8998 35.1915C2.4073 32.5765 6.9999 31.251 8.8802 30.1458L26.2022 20.0472L39.8446 12.0235C42.5223 10.4483 45.9663 8.30741 48.7424 7.09701C49.7063 6.51531 50.3413 6.12971 51.2419 5.42721C51.8159 6.32041 52.2027 6.8611 52.8726 7.6845C52.2569 8.0897 51.3858 8.70371 50.7664 9.04951C49.0713 10.5725 49.9933 18.535 49.7713 21.1853C51.422 20.1534 52.189 19.5847 54.0669 19.0367C61.198 23.053 68.7001 27.0018 75.4915 31.6703C75.7971 31.8806 76.0545 32.3818 76.1659 32.7361C76.0261 33.4814 76.1765 33.2115 75.5636 33.7355C73.5264 34.3091 71.5824 32.7671 70.2445 31.4127C70.4624 34.3399 70.3783 37.9769 70.3796 40.9598L70.3891 56.5447C70.395 58.7734 70.3052 63.3376 70.5502 65.3883C70.9138 65.5331 70.8247 65.5608 71.144 65.5196C72.9781 65.2831 75.6846 65.364 77.4975 65.5669C77.7245 52.8247 77.4135 39.9883 77.6105 27.1956C74.4161 26.7273 72.0593 25.7712 70.0713 23.0637C67.7425 19.8915 65.9836 14.5373 72.3498 15.9055C74.652 16.4002 75.7731 16.7978 77.3945 18.6339C77.7585 13.3453 77.0325 4.80291 77.7485 0.0346062ZM9.2392 65.3221C9.9069 65.3894 10.8331 65.5951 11.3629 65.3495C11.5333 64.3134 11.7657 58.8159 11.247 58.1583L11.0278 58.1759C10.435 58.18 9.3231 58.1058 8.8689 58.3851C8.5767 59.468 8.4119 64.541 8.8633 65.3529L9.2392 65.3221ZM84.1215 35.0083C84.9225 34.5751 86.3885 34.0115 86.3905 33.0437C85.3575 32.7629 84.4175 33.6527 83.6275 34.2456C82.5905 34.9456 81.2195 35.7055 81.1475 37.0683L81.3925 37.3532C82.4955 37.24 83.1475 35.8807 84.1215 35.0083ZM81.4535 7.73611C83.2445 6.20731 84.4125 5.09921 86.3265 3.54501L86.3235 3.28181L86.2425 3.2036C84.7475 3.8045 81.3935 5.90981 81.2815 7.56531L81.4535 7.73611Z" fill="#394255"/>
<path d="M51.2419 5.42721C51.8159 6.32041 52.2027 6.8611 52.8726 7.6845C52.2569 8.0897 51.3858 8.70371 50.7664 9.04951C50.4271 8.53851 50.3467 8.16191 50.165 7.58241C49.7377 7.15401 49.3584 7.18091 48.7424 7.09701C49.7063 6.51531 50.3413 6.12971 51.2419 5.42721Z" fill="#272931"/>
<path d="M53.6677 22.4053C55.714 23.3789 65.4519 29.0833 67.3428 30.4053C67.418 36.8374 67.5078 45.0334 67.0913 51.3715C66.4758 52.0043 66.0166 52.4028 65.6351 53.1965L65.0974 53.4135C64.3733 53.1961 64.5871 53.2594 64.065 52.5244C62.8527 51.5159 61.7598 51.8671 60.082 51.9989L58.8753 51.9495C57.7187 51.7325 55.8402 51.863 54.6634 51.9568C54.1934 52.005 53.4821 51.9907 52.9897 51.9972C51.7945 51.7348 50.3123 51.9137 49.0679 51.9931C48.6928 51.1488 48.5259 50.9054 48.7704 50.0341C48.7052 49.4249 48.7336 49.0203 48.0995 48.6138C45.9317 47.2242 42.5987 45.1399 40.2906 44.1845C40.3151 39.8904 40.2152 34.7152 40.4086 30.4736C43.556 28.3377 50.2019 24.3896 53.6677 22.4053Z" fill="#F1AD2E"/>
<path d="M50.254 36.2292C51.1981 36.2245 53.8095 36.1605 54.5986 36.2997C55.4211 36.3151 56.4728 36.2429 57.1568 36.6372C57.8571 37.618 57.577 38.2825 57.3714 39.5579C57.4293 39.8931 57.5739 40.5814 57.5475 40.8886C57.6522 42.2902 57.5507 42.7422 57.3025 44.095L54.6157 44.1269C54.2032 44.2234 53.5088 44.2063 53.0626 44.2128L50.0309 44.0352C49.9787 42.9252 49.9062 41.6958 50.3622 40.6872L50.2906 39.8048C50.0645 38.5333 49.8447 37.4671 50.254 36.2292Z" fill="#BC9D63"/>
<path d="M50.3622 40.6872C51.1726 40.6846 52.0272 40.5989 52.7209 40.9878C53.2321 41.609 53.3451 41.7744 53.2573 42.6886C53.2039 43.1981 53.1391 43.7063 53.0626 44.2128L50.0309 44.0352C49.9787 42.9252 49.9062 41.6958 50.3622 40.6872Z" fill="#634624"/>
<path d="M50.254 36.2292L53.1029 36.3322C53.1365 37.6107 53.163 38.5113 53.0457 39.7964L50.2906 39.8048C50.0645 38.5333 49.8447 37.4671 50.254 36.2292Z" fill="#4F3723"/>
<path d="M54.5986 36.2997C55.4211 36.3151 56.4728 36.2429 57.1568 36.6372C57.8571 37.618 57.577 38.2825 57.3714 39.5579C56.5738 39.5345 55.4667 39.694 54.6498 39.7852C54.5997 38.633 54.6062 37.4548 54.5986 36.2997Z" fill="#4F3723"/>
<path d="M54.5551 40.9197C55.5366 40.8926 56.5615 40.8981 57.5475 40.8886C57.6522 42.2902 57.5507 42.7422 57.3025 44.095L54.6157 44.1269C54.5336 43.3496 54.5642 41.7578 54.5551 40.9197Z" fill="#4F3723"/>
<path d="M44.2675 13.3499C45.1122 12.5129 45.7155 12.3002 46.7795 11.8135C46.7919 14.7552 46.8134 17.7056 46.866 20.6469C46.9062 22.8909 46.6139 23.2475 44.6007 24.0898C42.1724 25.4849 32.0098 30.587 31.4032 32.7996C31.3443 33.0151 31.4715 33.3184 31.524 33.5369C32.9418 34.9854 34.0748 33.8938 35.5514 33.321C36.148 32.6166 36.4797 32.2047 37.1863 31.615C37.2082 34.9082 37.1249 38.9606 37.304 42.1921L34.5045 40.7036C33.3475 40.187 30.6993 38.6067 29.4393 37.9345C28.8318 37.4237 26.6864 36.0752 25.9226 35.5692C22.0699 38.2399 19.1308 40.1759 14.7519 42.0213C14.6088 38.1127 14.6743 34.2639 14.7188 30.3563C17.6319 28.9066 21.2534 26.3699 24.2574 24.7513C31.0065 21.1145 37.5819 17.0513 44.2675 13.3499Z" fill="#94C21F"/>
<path d="M44.2675 13.3499C45.1122 12.5129 45.7155 12.3002 46.7795 11.8135C46.7919 14.7552 46.8134 17.7056 46.866 20.6469C46.9062 22.8909 46.6139 23.2475 44.6007 24.0898C44.1302 21.173 44.7243 16.5281 44.2675 13.3499Z" fill="#B8D2B3"/>
<path d="M35.5514 33.321C36.148 32.6166 36.4797 32.2047 37.1863 31.615C37.2082 34.9082 37.1249 38.9606 37.304 42.1921L34.5045 40.7036C35.8776 39.5992 35.9396 34.8884 35.5514 33.321Z" fill="#B8D2B3"/>
<path d="M40.1367 47.7236C42.5646 48.6131 43.0734 49.1924 45.1976 50.5801C46.9716 51.0822 47.0845 50.9191 48.7704 50.0341C48.5259 50.9054 48.6928 51.1488 49.0679 51.9931C50.3123 51.9137 51.7945 51.7348 52.9897 51.9972C53.4821 51.9907 54.1934 52.005 54.6634 51.9568C55.8402 51.863 57.7187 51.7325 58.8753 51.9495L60.082 51.9989C61.7598 51.8671 62.8527 51.5159 64.065 52.5244C64.5871 53.2594 64.3733 53.1961 65.0974 53.4135L65.6351 53.1965C66.176 54.483 66.9778 53.9904 67.1654 54.9952L67.0156 55.3221C66.7391 56.0334 66.673 56.1542 66.7823 56.9245L67.1697 57.3511C67.6256 59.1373 65.6675 58.077 65.862 60.29C66.698 61.2069 67.1912 60.8728 67.3937 61.6214L67.1398 61.8852C66.8538 62.8387 66.6947 63.3206 66.9846 64.3112C67.2399 64.6888 67.2332 64.712 67.2783 65.1766L66.9872 65.4663C65.1693 65.7466 41.6055 65.8175 40.4189 65.298C40.2071 64.6552 40.2598 64.8629 40.5811 64.0983C40.585 63.6311 40.4278 62.45 40.3727 61.9303C40.2943 61.1466 40.8714 61.038 41.4301 60.7854C42.9205 59.6943 40.2058 59.1206 40.1093 57.3754L40.5785 56.9468C40.5757 56.177 40.582 56.0575 40.2685 55.333C40.069 54.9544 40.1794 54.6691 40.2537 54.2347C40.1206 53.0527 40.0946 52.7442 40.2787 51.5752C40.2932 50.3005 40.2034 48.9988 40.1367 47.7236Z" fill="#BC9D63"/>
<path d="M40.3727 61.9303C40.2943 61.1466 40.8714 61.038 41.4301 60.7854C42.1816 60.8115 42.942 60.8586 43.6899 60.7956L43.9956 60.9111L44.2111 61.6608C44.754 61.726 45.4113 61.834 45.9461 61.8039L46.1857 61.9587C46.1367 63.0108 45.9962 62.8657 46.4151 63.705C47.4338 64.5043 48.9191 64.281 50.2446 64.2548C50.5513 64.3536 50.7222 64.3697 51.0359 64.4217L51.5662 64.036C51.5217 63.4175 51.4222 62.848 51.6891 62.2878C52.5836 61.6231 53.7907 61.8466 54.9905 61.878L55.3478 61.9043C56.1293 61.8156 56.7281 61.6996 57.4995 61.8648L61.5208 61.9155C62.158 61.8201 62.4606 61.736 63.0995 61.9014C64.6306 61.8223 65.6122 61.7961 67.1398 61.8852C66.8538 62.8387 66.6947 63.3206 66.9846 64.3112C67.2399 64.6888 67.2332 64.712 67.2783 65.1766L66.9872 65.4663C65.1693 65.7466 41.6055 65.8175 40.4189 65.298C40.2071 64.6552 40.2598 64.8629 40.5811 64.0983C40.585 63.6311 40.4278 62.45 40.3727 61.9303Z" fill="#AD9261"/>
<path d="M40.3727 61.9303C40.2943 61.1466 40.8714 61.038 41.4301 60.7854C42.1816 60.8115 42.942 60.8586 43.6899 60.7956L43.9956 60.9111L44.2111 61.6608C44.754 61.726 45.4113 61.834 45.9461 61.8039C45.924 62.5152 45.9669 63.6354 45.6408 64.2153L45.2803 64.3127C45.163 64.2392 44.765 64.0015 44.6874 63.9265C43.8709 64.2574 41.578 64.1265 40.5811 64.0983C40.585 63.6311 40.4278 62.45 40.3727 61.9303Z" fill="#634624"/>
<path d="M40.3727 61.9303C40.2943 61.1466 40.8714 61.038 41.4301 60.7854C42.1816 60.8115 42.942 60.8586 43.6899 60.7956L43.9956 60.9111L44.2111 61.6608C44.754 61.726 45.4113 61.834 45.9461 61.8039C45.924 62.5152 45.9669 63.6354 45.6408 64.2153L45.2803 64.3127C45.163 64.2392 44.765 64.0015 44.6874 63.9265C44.6895 63.2508 44.7583 62.7936 44.4419 62.2058C43.6168 61.7241 42.496 61.8561 41.4118 61.8039L40.3727 61.9303Z" fill="#B08D68"/>
<path d="M40.3727 61.9303C40.2943 61.1466 40.8714 61.038 41.4301 60.7854C42.1816 60.8115 42.942 60.8586 43.6899 60.7956L43.9956 60.9111L44.2111 61.6608C43.4679 61.6526 42.0385 61.5569 41.4118 61.8039L40.3727 61.9303Z" fill="#BC9D63"/>
<path d="M54.9905 61.878L55.3478 61.9043C56.9454 63.1472 55.8585 64.4197 54.1779 64.2384C53.3419 64.1483 52.4169 64.1119 51.5662 64.036C51.5217 63.4175 51.4222 62.848 51.6891 62.2878C52.5836 61.6231 53.7907 61.8466 54.9905 61.878Z" fill="#90613B"/>
<path d="M63.0995 61.9014C64.6306 61.8223 65.6122 61.7961 67.1398 61.8852C66.8538 62.8387 66.6947 63.3206 66.9846 64.3112C65.6781 64.0532 64.3831 64.5885 63.4121 63.898C62.9408 63.2708 63.0613 62.6962 63.0995 61.9014Z" fill="#634624"/>
<path d="M57.4995 61.8648L61.5208 61.9155C61.4857 64.1415 60.1781 65.1655 58.0034 63.9046C57.4609 63.5901 57.5422 62.4881 57.4995 61.8648Z" fill="#6D5627"/>
<path d="M64.7732 57.4451C65.6876 57.3328 66.259 57.2224 67.1697 57.3511C67.6256 59.1373 65.6675 58.077 65.862 60.29C66.698 61.2069 67.1912 60.8728 67.3937 61.6214L67.1398 61.8852C65.6122 61.7961 64.6306 61.8223 63.0995 61.9014C62.4606 61.736 62.158 61.8201 61.5208 61.9155L57.4995 61.8648C56.7281 61.6996 56.1293 61.8156 55.3478 61.9043L54.9905 61.878C53.7907 61.8466 52.5836 61.6231 51.6891 62.2878C51.4222 62.848 51.5217 63.4175 51.5662 64.036L51.0359 64.4217C50.7222 64.3697 50.5513 64.3536 50.2446 64.2548C48.9191 64.281 47.4338 64.5043 46.4151 63.705C45.9962 62.8657 46.1367 63.0108 46.1857 61.9587L45.9461 61.8039C45.4113 61.834 44.754 61.726 44.2111 61.6608L43.9956 60.9111L47.9246 60.8768L48.9739 60.8243L48.8707 58.923C49.4528 58.654 49.7162 58.6789 50.3479 58.6379L52.7156 58.6015C53.367 58.2269 54.051 58.5603 54.8807 58.6056C56.7382 58.6151 59.167 58.174 59.0283 60.8412L59.9158 60.8651C59.7281 58.2516 61.423 58.5783 63.3371 58.5334C63.0197 58.4816 62.7032 58.4265 62.3871 58.3682L62.3949 58.082C63.1873 57.834 63.9504 57.7159 64.6615 57.4826L64.7732 57.4451Z" fill="#C49F67"/>
<path d="M52.7156 58.6015C53.367 58.2269 54.051 58.5603 54.8807 58.6056C56.7382 58.6151 59.167 58.174 59.0283 60.8412C57.5434 60.8934 56.0573 60.8962 54.5722 60.8489L53.08 60.8871C53.1153 60.0336 52.9196 59.4273 52.7156 58.6015Z" fill="#90613B"/>
<path d="M52.7156 58.6015C53.367 58.2269 54.051 58.5603 54.8807 58.6056C54.1529 59.5511 54.1594 59.6913 54.5722 60.8489L53.08 60.8871C53.1153 60.0336 52.9196 59.4273 52.7156 58.6015Z" fill="#AD9261"/>
<path d="M48.4413 61.7329C49.4524 61.8669 49.5066 61.7145 50.2006 62.2582C50.3614 62.9899 50.2914 63.511 50.2446 64.2548C48.9191 64.281 47.4338 64.5043 46.4151 63.705C45.9962 62.8657 46.1367 63.0108 46.1857 61.9587L48.4413 61.7329Z" fill="#90613B"/>
<path d="M50.3479 58.6379L52.7156 58.6015C52.9196 59.4273 53.1153 60.0336 53.08 60.8871C51.9637 60.9671 50.1515 60.8627 48.9739 60.8243L48.8707 58.923C49.4528 58.654 49.7162 58.6789 50.3479 58.6379Z" fill="#6D5627"/>
<path d="M59.9158 60.8651C59.7281 58.2516 61.423 58.5783 63.3371 58.5334C63.6411 59.1378 63.9845 59.6568 63.8874 60.3259C63.0807 61.2893 61.1591 60.9115 59.9158 60.8651Z" fill="#6D5627"/>
<path d="M48.4413 61.7329C49.8901 61.6666 53.8762 61.4002 54.9905 61.878C53.7907 61.8466 52.5836 61.6231 51.6891 62.2878C51.4222 62.848 51.5217 63.4175 51.5662 64.036L51.0359 64.4217C50.7222 64.3697 50.5513 64.3536 50.2446 64.2548C50.2914 63.511 50.3614 62.9899 50.2006 62.2582C49.5066 61.7145 49.4524 61.8669 48.4413 61.7329Z" fill="#BC9D63"/>
<path d="M50.407 55.3579L50.7387 55.0776C51.1508 55.1537 51.2566 55.1375 51.5393 55.4507C51.5432 56.1993 51.4842 56.8085 51.8053 57.483C51.7485 58.6114 51.4236 58.463 50.3479 58.6379C49.7162 58.6789 49.4528 58.654 48.8707 58.923L48.9739 60.8243L47.9246 60.8768L43.9956 60.9111L43.6899 60.7956C42.942 60.8586 42.1816 60.8115 41.4301 60.7854C42.9205 59.6943 40.2058 59.1206 40.1093 57.3754L40.5785 56.9468C41.8996 57.1877 43.0196 57.215 44.3542 57.2783L44.6614 56.884C45.1804 56.4374 45.3773 56.6498 45.9091 56.89L46.0324 56.0599C46.9985 55.0165 48.7441 55.4499 50.407 55.3579Z" fill="#AD9261"/>
<path d="M40.5785 56.9468C41.8996 57.1877 43.0196 57.215 44.3542 57.2783L44.295 58.2783L44.5626 58.5292C43.6269 58.9383 43.2827 59.8629 43.6899 60.7956C42.942 60.8586 42.1816 60.8115 41.4301 60.7854C42.9205 59.6943 40.2058 59.1206 40.1093 57.3754L40.5785 56.9468Z" fill="#B08D68"/>
<path d="M43.6899 60.7956C43.2827 59.8629 43.6269 58.9383 44.5626 58.5292C45.6084 58.5988 46.4628 58.6448 47.5193 58.6401C47.6257 59.1931 47.8845 60.3685 47.9246 60.8768L43.9956 60.9111L43.6899 60.7956Z" fill="#90613B"/>
<path d="M45.9091 56.89L46.0324 56.0599C46.9985 55.0165 48.7441 55.4499 50.407 55.3579C50.3084 56.5156 50.5011 56.4102 49.8735 57.1493C48.7416 57.6219 47.0196 57.2835 45.9091 56.89Z" fill="#634624"/>
<path d="M40.1367 47.7236C42.5646 48.6131 43.0734 49.1924 45.1976 50.5801C44.7902 51.242 44.6118 51.6834 43.889 51.9462L43.7323 51.9731C42.771 51.918 42.1334 51.9538 41.1684 52.0145L40.2787 51.5752C40.2932 50.3005 40.2034 48.9988 40.1367 47.7236Z" fill="#CDA556"/>
<path d="M49.0679 51.9931C50.3123 51.9137 51.7945 51.7348 52.9897 51.9972C53.4821 51.9907 54.1934 52.005 54.6634 51.9568C54.5427 52.6493 54.3615 53.2451 54.5538 53.9016L53.2816 53.9666C51.6829 54.2236 50.556 54.0761 48.9604 53.9343C48.9782 53.3065 49.0315 52.6251 49.0679 51.9931Z" fill="#714025"/>
<path d="M52.9897 51.9972C53.4821 51.9907 54.1934 52.005 54.6634 51.9568C54.5427 52.6493 54.3615 53.2451 54.5538 53.9016L53.2816 53.9666C53.241 53.4259 53.0782 52.5603 52.9897 51.9972Z" fill="#B08D68"/>
<path d="M54.6634 51.9568C55.8402 51.863 57.7187 51.7325 58.8753 51.9495L59.0212 53.8341C58.2123 54.2638 55.4134 54.1049 54.5538 53.9016C54.3615 53.2451 54.5427 52.6493 54.6634 51.9568Z" fill="#714025"/>
<path d="M48.7704 50.0341C48.5259 50.9054 48.6928 51.1488 49.0679 51.9931C49.0315 52.6251 48.9782 53.3065 48.9604 53.9343C48.5929 54.0979 48.6545 54.0334 48.1841 53.9692C47.8259 53.3442 47.9502 53.2575 47.935 52.4361C47.1994 51.9301 44.9956 52.0069 43.889 51.9462C44.6118 51.6834 44.7902 51.242 45.1976 50.5801C46.9716 51.0822 47.0845 50.9191 48.7704 50.0341Z" fill="#AD9261"/>
<path d="M60.082 51.9989C61.7598 51.8671 62.8527 51.5159 64.065 52.5244C63.8775 53.5338 64.0292 53.6637 63.1943 54.2868C61.8899 54.0039 60.7322 54.4058 59.7993 53.5872L60.082 51.9989Z" fill="#634624"/>
<path d="M51.5393 55.4507C52.6768 55.4641 55.0969 55.2616 55.8676 55.6507C56.2013 56.3906 56.1785 56.0795 55.9906 56.8227C54.579 57.7307 53.0287 56.6495 51.8053 57.483C51.4842 56.8085 51.5432 56.1993 51.5393 55.4507Z" fill="#634624"/>
<path d="M43.889 51.9462C44.9956 52.0069 47.1994 51.9301 47.935 52.4361C47.6178 54.5505 44.8914 54.6044 43.7855 53.4485C43.5742 52.8061 43.6332 52.6178 43.7323 51.9731L43.889 51.9462Z" fill="#4F3723"/>
<path d="M65.9804 55.3643L67.0156 55.3221C66.7391 56.0334 66.673 56.1542 66.7823 56.9245L67.1697 57.3511C66.259 57.2224 65.6876 57.3328 64.7732 57.4451C63.8454 57.3504 63.0317 57.2548 62.9931 56.2209C63.882 55.1139 64.6828 55.3392 65.9804 55.3643Z" fill="#634624"/>
<path d="M40.2685 55.333L40.4821 55.3887C42.2106 55.8245 43.561 55.0594 44.5026 55.7872C44.6506 56.3055 44.6659 56.3498 44.6614 56.884L44.3542 57.2783C43.0196 57.215 41.8996 57.1877 40.5785 56.9468C40.5757 56.177 40.582 56.0575 40.2685 55.333Z" fill="#4F3723"/>
<path d="M64.065 52.5244C64.5871 53.2594 64.3733 53.1961 65.0974 53.4135L65.6351 53.1965C66.176 54.483 66.9778 53.9904 67.1654 54.9952L67.0156 55.3221L65.9804 55.3643C64.4635 55.0613 64.0539 55.789 63.1943 54.2868C64.0292 53.6637 63.8775 53.5338 64.065 52.5244Z" fill="#CDA556"/>
<path d="M40.2787 51.5752L41.1684 52.0145C41.8207 52.6705 41.7877 52.4588 42.0064 53.2695C41.5347 53.9062 41.091 54.024 40.2537 54.2347C40.1206 53.0527 40.0946 52.7442 40.2787 51.5752Z" fill="#564C4C"/>
<path d="M57.5628 55.4146C58.6951 55.3794 60.2344 55.1819 61.1681 55.6966C61.6522 56.3559 61.5146 56.1358 61.4957 57.0913C60.4614 57.1927 58.8176 57.4449 57.9314 57C57.4195 56.3056 57.5806 56.4402 57.5628 55.4146Z" fill="#4F3723"/>
<path d="M25.2835 40.2235C27.0003 39.7247 28.2508 40.7317 29.9143 41.5945C32.3966 42.9315 34.9923 44.636 37.3092 45.847C37.1618 50.9476 37.3528 56.0558 37.201 61.1925C37.2091 62.2993 37.0933 63.9862 37.2275 64.9975L37.1837 65.1194C36.4826 65.5707 28.8392 65.445 27.5421 65.4485C27.716 63.5385 27.5729 60.2896 27.5432 58.2814C28.9996 58.3005 32.3645 58.6159 33.6304 57.7671C34.1874 57.3938 34.1052 55.9636 33.5818 55.3906C32.1861 54.8746 17.2703 55.1038 14.6585 55.1155C14.5846 52.1166 14.5924 49.1163 14.6819 46.118C16.9466 44.5451 21.5364 42.2232 23.1895 40.9487C23.7258 40.819 24.7246 40.426 25.2835 40.2235Z" fill="#6CB5C0"/>
<path d="M25.2835 40.2235C27.0003 39.7247 28.2508 40.7317 29.9143 41.5945C32.3966 42.9315 34.9923 44.636 37.3092 45.847C37.1618 50.9476 37.3528 56.0558 37.201 61.1925C37.2091 62.2993 37.0933 63.9862 37.2275 64.9975C36.7932 64.0306 36.2908 63.3902 35.6784 62.5384C36.0584 60.2349 36.1499 56.9158 36.1649 54.552C35.7497 52.4543 37.1346 46.903 36.6119 46.3851C34.0725 43.8687 28.6863 41.2637 25.2835 40.2235Z" fill="#56ABB0"/>
<path d="M23.1049 48.6594C23.1997 46.7322 24.0372 46.4951 25.7535 46.858C26.0722 47.042 26.3768 47.1667 26.5854 47.4477C27.2514 47.0399 27.5939 46.7505 28.3714 46.7687C29.2268 47.2855 29.105 47.6504 28.9918 48.5978C28.9346 49.1766 28.8735 49.4689 28.983 50.049C28.9435 50.973 29.0859 50.9878 28.648 51.6544C28.057 51.8649 27.5653 51.7292 26.9507 51.6282C25.793 51.623 25.1099 51.6676 23.9587 51.8003L23.6122 51.6746C23.0935 51.022 23.2493 51.0294 23.1496 50.0534C23.4323 49.4019 23.3107 49.1812 23.1049 48.6594Z" fill="#78A9BC"/>
<path d="M23.7196 50.0068C24.806 50.0391 25.9485 50.2121 26.8788 50.2351L26.9507 51.6282C25.793 51.623 25.1099 51.6676 23.9587 51.8003L23.6122 51.6746C23.0935 51.022 23.2493 51.0294 23.1496 50.0534L23.7196 50.0068Z" fill="#27455B"/>
<path d="M23.7196 50.0068C24.806 50.0391 25.9485 50.2121 26.8788 50.2351L26.9507 51.6282C25.793 51.623 25.1099 51.6676 23.9587 51.8003C24.7715 51.5997 25.152 51.6215 25.3131 50.7528C24.6963 50.0701 24.7767 50.2622 23.7196 50.0068Z" fill="#3A6E7F"/>
<path d="M23.1049 48.6594C23.1997 46.7322 24.0372 46.4951 25.7535 46.858C25.4316 47.9385 25.6536 47.7054 24.8994 48.4246C24.0855 48.6628 23.9539 48.6754 23.1049 48.6594Z" fill="#27455B"/>
<path d="M26.5854 47.4477C27.2514 47.0399 27.5939 46.7505 28.3714 46.7687C29.2268 47.2855 29.105 47.6504 28.9918 48.5978C28.2393 48.6327 27.9924 48.5778 27.2594 48.4514C26.5722 47.9306 26.7348 48.205 26.5854 47.4477Z" fill="#27455B"/>
<path d="M26.8788 50.2351C27.85 49.9402 27.9771 49.9241 28.983 50.049C28.9435 50.973 29.0859 50.9878 28.648 51.6544C28.057 51.8649 27.5653 51.7292 26.9507 51.6282L26.8788 50.2351Z" fill="#155B69"/>
<path d="M20.9786 58.258L24.4357 58.2309C24.507 60.5843 24.4539 63.2194 24.4508 65.5953C23.2893 65.5186 22.0806 65.493 20.914 65.4518C20.9867 63.126 20.9609 60.5999 20.9786 58.258Z" fill="#78A9BC"/>
<path d="M14.6679 58.0879L17.8917 58.2362C17.9483 60.6931 18.0107 63.0144 17.9222 65.4744L14.7243 65.5227C14.677 63.0447 14.6584 60.5663 14.6679 58.0879Z" fill="#78A9BC"/>
<path d="M29.4393 37.9345C30.6993 38.6067 33.3475 40.187 34.5045 40.7036L37.304 42.1921C36.0116 42.8278 33.2993 39.7752 31.1929 39.7468C31.0192 40.0165 30.871 40.2287 30.6823 40.4886C29.2328 40.5884 28.2789 38.7324 26.8979 39.4445L27.0321 39.6754C27.9559 39.7069 29.4688 40.8387 29.9143 41.5945C28.2508 40.7317 27.0003 39.7247 25.2835 40.2235C24.7246 40.426 23.7258 40.819 23.1895 40.9487C23.5446 40.4163 26.6586 38.5932 27.4126 38.3779C28.0253 38.203 28.7122 38.2167 29.4393 37.9345Z" fill="#27455B"/>
<path d="M70.8344 18.7378C72.9044 18.9012 77.8095 21.4536 76.9141 24.2169C76.0449 23.6961 76.0824 22.7526 75.3672 22.2028C74.2718 21.3604 72.7941 20.7416 71.6244 19.9967C70.9708 19.5803 70.9812 19.371 70.8344 18.7378Z" fill="#C3D3E5"/>
<path d="M83.6275 34.2456C83.7605 34.8414 83.6285 34.6376 84.1215 35.0083C83.1475 35.8807 82.4955 37.24 81.3925 37.3532L81.1475 37.0683C81.2205 35.7055 82.5915 34.9456 83.6275 34.2456Z" fill="#C3D3E5" fill-opacity="0.709804"/>
<path d="M86.2425 3.2036L86.3235 3.28181L86.3265 3.54501C84.4125 5.09921 83.2445 6.20731 81.4535 7.73611L81.2815 7.56531C81.3935 5.90981 84.7475 3.8045 86.2425 3.2036Z" fill="#C3D3E5" fill-opacity="0.0313725"/>
<path d="M83.6275 34.2456C84.4175 33.6527 85.3575 32.7629 86.3905 33.0437C86.3885 34.0115 84.9225 34.575 84.1225 35.0082C83.6295 34.6375 83.7595 34.8414 83.6275 34.2456Z" fill="#C3D3E5" fill-opacity="0.556863"/>
<path d="M106.14 65.8C103.34 65.8 100.86 65.2 98.7 64C96.58 62.8 94.94 61.12 93.78 58.96C92.62 56.8 92.04 54.28 92.04 51.4C92.04 48.48 92.62 45.94 93.78 43.78C94.98 41.62 96.66 39.96 98.82 38.8C100.98 37.6 103.52 37 106.44 37C109.36 37 111.84 37.56 113.88 38.68C115.92 39.8 117.48 41.42 118.56 43.54C119.68 45.62 120.24 48.14 120.24 51.1C120.24 51.42 120.22 51.76 120.18 52.12C120.18 52.48 120.16 52.74 120.12 52.9H95.88V48.46H114.6L112.62 51.22C112.74 50.98 112.86 50.66 112.98 50.26C113.14 49.82 113.22 49.46 113.22 49.18C113.22 47.7 112.92 46.42 112.32 45.34C111.76 44.26 110.96 43.42 109.92 42.82C108.92 42.22 107.74 41.92 106.38 41.92C104.74 41.92 103.34 42.28 102.18 43C101.02 43.72 100.14 44.76 99.54 46.12C98.94 47.48 98.62 49.16 98.58 51.16C98.58 53.16 98.88 54.86 99.48 56.26C100.08 57.62 100.96 58.66 102.12 59.38C103.32 60.1 104.76 60.46 106.44 60.46C108.2 60.46 109.74 60.1 111.06 59.38C112.38 58.66 113.48 57.56 114.36 56.08L119.94 58.36C118.5 60.84 116.64 62.7 114.36 63.94C112.08 65.18 109.34 65.8 106.14 65.8Z" fill="#94C21F"/>
<path d="M130.745 51.4C130.745 53.16 131.125 54.7 131.885 56.02C132.645 57.3 133.665 58.32 134.945 59.08C136.265 59.84 137.725 60.22 139.325 60.22C140.645 60.22 141.905 60.02 143.105 59.62C144.305 59.22 145.365 58.66 146.285 57.94C147.205 57.22 147.885 56.42 148.325 55.54V62.68C147.365 63.64 146.065 64.4 144.425 64.96C142.785 65.52 140.985 65.8 139.025 65.8C136.185 65.8 133.625 65.2 131.345 64C129.105 62.76 127.325 61.06 126.005 58.9C124.725 56.7 124.085 54.2 124.085 51.4C124.085 48.56 124.725 46.06 126.005 43.9C127.325 41.74 129.105 40.06 131.345 38.86C133.625 37.62 136.185 37 139.025 37C140.985 37 142.785 37.28 144.425 37.84C146.065 38.4 147.365 39.16 148.325 40.12V47.26C147.885 46.34 147.185 45.54 146.225 44.86C145.305 44.14 144.245 43.58 143.045 43.18C141.845 42.78 140.605 42.58 139.325 42.58C137.725 42.58 136.265 42.96 134.945 43.72C133.665 44.48 132.645 45.52 131.885 46.84C131.125 48.16 130.745 49.68 130.745 51.4Z" fill="#94C21F"/>
<path d="M153.388 51.4C153.388 48.56 154.028 46.06 155.308 43.9C156.628 41.74 158.408 40.06 160.648 38.86C162.888 37.62 165.428 37 168.268 37C171.108 37 173.628 37.62 175.828 38.86C178.068 40.06 179.848 41.74 181.168 43.9C182.488 46.06 183.148 48.56 183.148 51.4C183.148 54.2 182.488 56.7 181.168 58.9C179.848 61.06 178.068 62.76 175.828 64C173.628 65.2 171.108 65.8 168.268 65.8C165.428 65.8 162.888 65.2 160.648 64C158.408 62.76 156.628 61.06 155.308 58.9C154.028 56.7 153.388 54.2 153.388 51.4ZM160.048 51.4C160.048 53.12 160.408 54.64 161.128 55.96C161.848 57.24 162.828 58.26 164.068 59.02C165.308 59.74 166.708 60.1 168.268 60.1C169.788 60.1 171.168 59.74 172.408 59.02C173.688 58.26 174.688 57.24 175.408 55.96C176.128 54.64 176.488 53.12 176.488 51.4C176.488 49.68 176.128 48.16 175.408 46.84C174.688 45.52 173.688 44.5 172.408 43.78C171.168 43.06 169.788 42.7 168.268 42.7C166.708 42.7 165.308 43.06 164.068 43.78C162.828 44.5 161.848 45.52 161.128 46.84C160.408 48.16 160.048 49.68 160.048 51.4Z" fill="#94C21F"/>
<path d="M184 40.2H199.66V45.9H184V40.2ZM188.62 30.6H195.04V67.8H188.62V30.6Z" fill="#F1AD2E"/>
<path d="M203.889 29.22C203.889 28.1 204.289 27.16 205.089 26.4C205.929 25.64 206.889 25.26 207.969 25.26C209.129 25.26 210.089 25.64 210.849 26.4C211.649 27.16 212.049 28.1 212.049 29.22C212.049 30.3 211.649 31.24 210.849 32.04C210.089 32.8 209.129 33.18 207.969 33.18C206.889 33.18 205.929 32.8 205.089 32.04C204.289 31.24 203.889 30.3 203.889 29.22ZM204.789 40.2H211.149V67.8H204.789V40.2Z" fill="#F1AD2E"/>
<path d="M219.227 29.22C219.227 28.1 219.627 27.18 220.427 26.46C221.227 25.7 222.187 25.32 223.307 25.32C224.427 25.32 225.367 25.7 226.127 26.46C226.927 27.18 227.327 28.1 227.327 29.22C227.327 30.3 226.927 31.22 226.127 31.98C225.367 32.74 224.427 33.12 223.307 33.12C222.187 33.12 221.227 32.74 220.427 31.98C219.627 31.22 219.227 30.3 219.227 29.22ZM214.547 73.74C214.867 74.22 215.267 74.6 215.747 74.88C216.227 75.16 216.787 75.3 217.427 75.3C218.067 75.3 218.587 75.12 218.987 74.76C219.427 74.44 219.747 73.92 219.947 73.2C220.187 72.48 220.307 71.56 220.307 70.44V40.2H226.667V71.7C226.667 73.7 226.327 75.42 225.647 76.86C224.967 78.34 223.947 79.46 222.587 80.22C221.267 81.02 219.627 81.42 217.667 81.42C216.667 81.42 215.787 81.3 215.027 81.06C214.267 80.86 213.607 80.54 213.047 80.1C212.447 79.7 211.927 79.26 211.487 78.78L214.547 73.74Z" fill="#F1AD2E"/>
<path d="M233.494 54C233.494 51.16 234.134 48.66 235.414 46.5C236.734 44.34 238.514 42.66 240.754 41.46C242.994 40.22 245.534 39.6 248.374 39.6C251.214 39.6 253.734 40.22 255.934 41.46C258.174 42.66 259.954 44.34 261.274 46.5C262.594 48.66 263.254 51.16 263.254 54C263.254 56.8 262.594 59.3 261.274 61.5C259.954 63.66 258.174 65.36 255.934 66.6C253.734 67.8 251.214 68.4 248.374 68.4C245.534 68.4 242.994 67.8 240.754 66.6C238.514 65.36 236.734 63.66 235.414 61.5C234.134 59.3 233.494 56.8 233.494 54ZM240.154 54C240.154 55.72 240.514 57.24 241.234 58.56C241.954 59.84 242.934 60.86 244.174 61.62C245.414 62.34 246.814 62.7 248.374 62.7C249.894 62.7 251.274 62.34 252.514 61.62C253.794 60.86 254.794 59.84 255.514 58.56C256.234 57.24 256.594 55.72 256.594 54C256.594 52.28 256.234 50.76 255.514 49.44C254.794 48.12 253.794 47.1 252.514 46.38C251.274 45.66 249.894 45.3 248.374 45.3C246.814 45.3 245.414 45.66 244.174 46.38C242.934 47.1 241.954 48.12 241.234 49.44C240.514 50.76 240.154 52.28 240.154 54Z" fill="#F1AD2E"/>
<path d="M269.402 21H275.883V67.8H269.402V21Z" fill="#F1AD2E"/>
<path d="M282.068 54C282.068 51.16 282.708 48.66 283.988 46.5C285.308 44.34 287.088 42.66 289.328 41.46C291.568 40.22 294.108 39.6 296.948 39.6C299.788 39.6 302.308 40.22 304.508 41.46C306.748 42.66 308.528 44.34 309.848 46.5C311.168 48.66 311.828 51.16 311.828 54C311.828 56.8 311.168 59.3 309.848 61.5C308.528 63.66 306.748 65.36 304.508 66.6C302.308 67.8 299.788 68.4 296.948 68.4C294.108 68.4 291.568 67.8 289.328 66.6C287.088 65.36 285.308 63.66 283.988 61.5C282.708 59.3 282.068 56.8 282.068 54ZM288.728 54C288.728 55.72 289.088 57.24 289.808 58.56C290.528 59.84 291.508 60.86 292.748 61.62C293.988 62.34 295.388 62.7 296.948 62.7C298.468 62.7 299.848 62.34 301.088 61.62C302.368 60.86 303.368 59.84 304.088 58.56C304.808 57.24 305.168 55.72 305.168 54C305.168 52.28 304.808 50.76 304.088 49.44C303.368 48.12 302.368 47.1 301.088 46.38C299.848 45.66 298.468 45.3 296.948 45.3C295.388 45.3 293.988 45.66 292.748 46.38C291.508 47.1 290.528 48.12 289.808 49.44C289.088 50.76 288.728 52.28 288.728 54Z" fill="#F1AD2E"/>
</svg>
